<svg width="21" height="21" viewBox="0 0 21 21" fill="none" xmlns="http://www.w3.org/2000/svg">
<g clip-path="url(#clip0)">
<path fill-rule="evenodd" clip-rule="evenodd" d="M11.2545 17.824L17.4761 11.6655C18.1359 11.0125 18.1359 9.96763 17.4761 9.31461L11.2493 3.15096L11.5756 2.8279C12.2354 2.17488 13.3019 2.17488 13.9506 2.8279L20.5039 9.31461C21.1636 9.96763 21.1636 11.0125 20.5149 11.6655L13.9616 18.1522C13.3019 18.8052 12.2354 18.8052 11.5866 18.1522L11.2545 17.824Z" fill="white"/>
<path fill-rule="evenodd" clip-rule="evenodd" d="M9.42304 18.1522L15.9763 11.6655C16.636 11.0125 16.636 9.96763 15.9763 9.31461L9.42304 2.8279C8.77432 2.17488 7.70776 2.17488 7.04804 2.8279L0.494792 9.31461C-0.164931 9.95675 -0.164931 11.0125 0.494792 11.6655L2.66999 13.8186L7.85571 8.66967C8.45381 8.07764 9.41685 8.07764 10.015 8.66967C10.613 9.26169 10.613 10.215 10.015 10.807L4.82923 15.9559L7.04804 18.1522C7.69677 18.8052 8.76332 18.8052 9.42304 18.1522Z" fill="white"/>
<path d="M9.95495 9.91701C10.0461 9.35941 9.6633 8.83427 9.09998 8.74406C8.53666 8.65386 8.00613 9.03276 7.915 9.59036C7.82387 10.148 8.20666 10.6731 8.76998 10.7633C9.33329 10.8535 9.86383 10.4746 9.95495 9.91701Z" fill="white"/>
</g>
<defs>
<clipPath id="clip0">
<rect width="21" height="21" fill="white"/>
</clipPath>
</defs>
</svg>
