<svg width="21" height="21" viewBox="0 0 21 21" fill="none" xmlns="http://www.w3.org/2000/svg">
<path fill-rule="evenodd" clip-rule="evenodd" d="M10.5 21C16.299 21 21 16.299 21 10.5C21 4.70101 16.299 0 10.5 0C4.70101 0 0 4.70101 0 10.5C0 16.299 4.70101 21 10.5 21ZM7 8.48269L10.5 6.46346L14 8.48269V12.5173L10.5 14.5365L7 12.5173V8.48269ZM9.50056 3.5766C10.1191 3.21976 10.8809 3.21976 11.4994 3.5766L15.9994 6.17276C16.6186 6.52994 17 7.19037 17 7.90513V13.0949C17 13.8096 16.6186 14.4701 15.9994 14.8272L11.4994 17.4234C10.8809 17.7802 10.1191 17.7802 9.50056 17.4234L5.00056 14.8272C4.38144 14.4701 4 13.8096 4 13.0949V7.90513C4 7.19037 4.38144 6.52994 5.00056 6.17276L9.50056 3.5766Z" fill="white"/>
</svg>
