<svg width="27" height="29" viewBox="0 0 27 29" fill="none" xmlns="http://www.w3.org/2000/svg">
    <path fill-rule="evenodd" clip-rule="evenodd" d="M20.1473 1.2893C15.7573 0.403565 11.2428 0.403565 6.85283 1.2893C4.10331 1.84406 1.8906 3.94939 1.13151 6.73296L1.06691 6.96986C0.172197 10.2507 0.172197 13.7229 1.06691 17.0038L1.13151 17.2407C1.8906 20.0242 4.10331 22.1296 6.85283 22.6843C8.69987 23.057 10.569 23.2729 12.4416 23.3319V26.1899H9.9718C9.38722 26.1899 8.91333 26.6791 8.91333 27.2825C8.91333 27.8858 9.38722 28.375 9.9718 28.375H17.0283C17.6129 28.375 18.0868 27.8858 18.0868 27.2825C18.0868 26.6791 17.6129 26.1899 17.0283 26.1899H14.5585V23.3319C16.4311 23.2729 18.3002 23.057 20.1473 22.6843C22.8968 22.1296 25.1095 20.0242 25.8686 17.2407L25.9332 17.0037C26.8279 13.7229 26.8279 10.2508 25.9332 6.96987L25.8686 6.73296C25.1095 3.94939 22.8968 1.84406 20.1473 1.2893ZM16.6557 13.7273C16.6675 13.7164 16.6792 13.7055 16.6909 13.6946L19.0061 11.5439C19.3537 11.221 19.3819 10.6683 19.069 10.3095C18.7562 9.95075 18.2208 9.92166 17.8731 10.2446L15.558 12.3953C15.3314 12.6058 15.1846 12.7406 15.0747 12.8299C14.9897 12.7153 14.8798 12.5472 14.7106 12.2854L13.6986 10.7185C13.6899 10.705 13.6811 10.6914 13.6724 10.6779C13.4849 10.3874 13.298 10.098 13.1123 9.88299C12.902 9.63956 12.5967 9.37487 12.1478 9.31665C11.6989 9.25843 11.3397 9.43694 11.0776 9.6191C10.8461 9.77997 10.5957 10.0127 10.3444 10.2463C10.3327 10.2572 10.3209 10.2681 10.3092 10.279L7.99407 12.4297C7.64646 12.7526 7.61828 13.3052 7.93113 13.664C8.24398 14.0228 8.77938 14.0519 9.127 13.729L11.4422 11.5783C11.6688 11.3678 11.8156 11.233 11.9254 11.1436C12.0105 11.2583 12.1204 11.4263 12.2895 11.6882L13.3015 13.2551C13.3018 13.2555 13.3021 13.256 13.3024 13.2564C13.3108 13.2695 13.3193 13.2826 13.3277 13.2957C13.5153 13.5862 13.7021 13.8756 13.8878 14.0906C14.0981 14.334 14.4034 14.5987 14.8523 14.6569C15.3012 14.7152 15.6605 14.5367 15.9226 14.3545C16.154 14.1936 16.4044 13.9609 16.6557 13.7273Z" fill="white"/>
</svg>
