<svg width="31" height="27" viewBox="0 0 31 27" fill="none" xmlns="http://www.w3.org/2000/svg">
<path fill-rule="evenodd" clip-rule="evenodd" d="M23.913 8.22346H30.0834C30.0834 3.2692 27.1149 0.375 22.0853 0.375H8.9149C3.88527 0.375 0.916748 3.2692 0.916748 8.16027V18.8397C0.916748 23.7308 3.88527 26.625 8.9149 26.625H22.0853C27.1149 26.625 30.0834 23.7308 30.0834 18.8397V18.3848H23.913C21.0493 18.3848 18.7279 16.1214 18.7279 13.3294C18.7279 10.5374 21.0493 8.27401 23.913 8.27401V8.22346ZM23.9132 10.3973H28.9946C29.596 10.3973 30.0835 10.8726 30.0835 11.4589V15.1493C30.0765 15.7328 29.5931 16.2041 28.9946 16.211H24.0298C22.5801 16.23 21.3124 15.2622 20.9835 13.8855C20.8188 13.0309 21.05 12.149 21.6151 11.4762C22.1801 10.8034 23.0213 10.4085 23.9132 10.3973ZM24.1337 14.2773H24.6134C25.2291 14.2773 25.7282 13.7907 25.7282 13.1904C25.7282 12.5901 25.2291 12.1035 24.6134 12.1035H24.1337C23.8393 12.1001 23.5557 12.2118 23.3462 12.4136C23.1368 12.6154 23.0189 12.8906 23.0189 13.1777C23.0189 13.7801 23.5159 14.2704 24.1337 14.2773ZM7.82614 8.22345H16.0576C16.6733 8.22345 17.1724 7.73683 17.1724 7.13655C17.1724 6.53627 16.6733 6.04964 16.0576 6.04964H7.82614C7.21548 6.0496 6.71843 6.52857 6.71133 7.12391C6.71129 7.72627 7.20836 8.21653 7.82614 8.22345Z" fill="white"/>
</svg>
