<svg width="31" height="31" viewBox="0 0 31 31" fill="none" xmlns="http://www.w3.org/2000/svg">
<path fill-rule="evenodd" clip-rule="evenodd" d="M4.62067 0.916626H9.54984C11.6061 0.916626 13.254 2.59371 13.254 4.65142V9.62288C13.254 11.6937 11.6061 13.3562 9.54984 13.3562H4.62067C2.579 13.3562 0.916504 11.6937 0.916504 9.62288V4.65142C0.916504 2.59371 2.579 0.916626 4.62067 0.916626ZM4.62067 17.6433H9.54984C11.6061 17.6433 13.254 19.3072 13.254 21.3781V26.3495C13.254 28.4058 11.6061 30.0829 9.54984 30.0829H4.62067C2.579 30.0829 0.916504 28.4058 0.916504 26.3495V21.3781C0.916504 19.3072 2.579 17.6433 4.62067 17.6433ZM26.3791 0.916626H21.45C19.3937 0.916626 17.7458 2.59371 17.7458 4.65142V9.62288C17.7458 11.6937 19.3937 13.3562 21.45 13.3562H26.3791C28.4208 13.3562 30.0833 11.6937 30.0833 9.62288V4.65142C30.0833 2.59371 28.4208 0.916626 26.3791 0.916626ZM21.45 17.6433H26.3791C28.4208 17.6433 30.0833 19.3072 30.0833 21.3781V26.3495C30.0833 28.4058 28.4208 30.0829 26.3791 30.0829H21.45C19.3937 30.0829 17.7458 28.4058 17.7458 26.3495V21.3781C17.7458 19.3072 19.3937 17.6433 21.45 17.6433Z" fill="white"/>
</svg>
