<svg width="31" height="31" viewBox="0 0 31 31" fill="none" xmlns="http://www.w3.org/2000/svg">
<path fill-rule="evenodd" clip-rule="evenodd" d="M23.054 4.43127C23.054 2.49169 24.629 0.916687 26.5685 0.916687C28.5081 0.916687 30.0831 2.49169 30.0831 4.43127C30.0831 6.37085 28.5081 7.94585 26.5685 7.94585C24.629 7.94585 23.054 6.37085 23.054 4.43127ZM17.4394 19.524L21.654 14.0859L21.5956 14.115C21.829 13.7942 21.8727 13.3859 21.7123 13.0213C21.5534 12.6567 21.2019 12.4088 20.8242 12.3796C20.429 12.3359 20.0367 12.5109 19.8019 12.8317L16.2742 17.3963L12.2331 14.2171C11.9852 14.0275 11.6936 13.9531 11.4019 13.9838C11.1117 14.0275 10.8492 14.1865 10.6727 14.4198L6.35752 20.0359L6.26856 20.1671C6.02065 20.6323 6.13731 21.2302 6.57481 21.5525C6.77898 21.6838 6.99773 21.7713 7.24565 21.7713C7.58252 21.7859 7.9019 21.6094 8.10606 21.3338L11.7665 16.6219L15.9227 19.7442L16.054 19.8302C16.5206 20.0781 17.104 19.9629 17.4394 19.524ZM20.5311 3.51295C20.4728 3.87753 20.4436 4.24211 20.4436 4.6067C20.4436 7.88795 23.0978 10.5407 26.3644 10.5407C26.729 10.5407 27.079 10.4984 27.4436 10.44V22.2073C27.4436 27.1525 24.5269 30.0838 19.5686 30.0838H8.79296C3.83317 30.0838 0.916504 27.1525 0.916504 22.2073V11.4171C0.916504 6.45878 3.83317 3.51295 8.79296 3.51295H20.5311Z" fill="white"/>
</svg>
