<svg width="31" height="31" viewBox="0 0 31 31" fill="none" xmlns="http://www.w3.org/2000/svg">
<path fill-rule="evenodd" clip-rule="evenodd" d="M27.7486 11.3379L28.799 12.3879C29.6306 13.2046 30.0828 14.3129 30.0828 15.4796C30.0974 16.6462 29.6452 17.756 28.8282 18.5858C28.8185 18.5965 28.8088 18.6059 28.799 18.6153C28.7942 18.62 28.7893 18.6247 28.7844 18.6296L27.7486 19.665C27.3402 20.0733 27.1067 20.6275 27.1067 21.2123V22.7129C27.1067 25.1337 25.1373 27.1039 22.7156 27.1039H21.2129C20.6294 27.1039 20.075 27.3358 19.6666 27.7441L18.6162 28.7941C17.7554 29.656 16.6321 30.0775 15.5088 30.0775C14.3855 30.0775 13.2621 29.656 12.4014 28.8102L11.3364 27.7441C10.928 27.3358 10.3736 27.1039 9.79006 27.1039H8.28743C5.86572 27.1039 3.89625 25.1337 3.89625 22.7129V21.2123C3.89625 20.6275 3.66284 20.0733 3.25435 19.6504L2.20397 18.615C0.497104 16.9102 0.482516 14.1233 2.18938 12.4039L3.25435 11.3379C3.66284 10.9296 3.89625 10.3754 3.89625 9.77747V8.28997C3.89625 5.86914 5.86572 3.90184 8.28743 3.90184H9.79006C10.3736 3.90184 10.928 3.66705 11.3364 3.25872L12.3868 2.20872C14.0937 0.489343 16.8801 0.489343 18.6016 2.19559L19.6666 3.25872C20.075 3.66705 20.6294 3.90184 21.2129 3.90184H22.7156C25.1373 3.90184 27.1067 5.86914 27.1067 8.28997V9.79351C27.1067 10.3754 27.3402 10.9296 27.7486 11.3379ZM11.745 20.5254C12.0951 20.5254 12.4161 20.3941 12.6495 20.1462L20.1481 12.6519C20.6441 12.156 20.6441 11.3379 20.1481 10.8421C19.652 10.3477 18.8497 10.3477 18.3537 10.8421L10.8551 18.3379C10.3591 18.8337 10.3591 19.6504 10.8551 20.1462C11.0885 20.3941 11.4095 20.5254 11.745 20.5254ZM17.9743 19.2421C17.9743 19.9567 18.5432 20.5254 19.2581 20.5254C19.9583 20.5254 20.5273 19.9567 20.5273 19.2421C20.5273 18.5435 19.9583 17.9733 19.2581 17.9733C18.5432 17.9733 17.9743 18.5435 17.9743 19.2421ZM11.7594 10.4775C12.4597 10.4775 13.0286 11.0462 13.0286 11.7462C13.0286 12.4623 12.4597 13.0296 11.7594 13.0296C11.0592 13.0296 10.4756 12.4623 10.4756 11.7462C10.4756 11.0462 11.0592 10.4775 11.7594 10.4775Z" fill="white"/>
</svg>
