<svg width="16" height="16" viewBox="0 0 16 16" fill="none" xmlns="http://www.w3.org/2000/svg">
<path fill-rule="evenodd" clip-rule="evenodd" d="M0.861022 0.535828C1.19147 0.205383 1.72722 0.205384 2.05767 0.535829L8.02661 6.50477L13.9956 0.535821C14.326 0.205377 14.8618 0.205376 15.1922 0.535821C15.5227 0.866267 15.5226 1.40202 15.1922 1.73247L9.22326 7.70142L15.1922 13.6704C15.5226 14.0008 15.5227 14.5366 15.1922 14.867C14.8618 15.1975 14.326 15.1975 13.9956 14.867L8.02661 8.89806L2.05767 14.867C1.72722 15.1974 1.19147 15.1974 0.861022 14.867C0.530577 14.5366 0.530577 14.0008 0.861022 13.6704L6.82996 7.70142L0.861022 1.73248C0.530577 1.40203 0.530577 0.866274 0.861022 0.535828Z" fill="white"/>
</svg>
