<svg width="31" height="31" viewBox="0 0 31 31" fill="none" xmlns="http://www.w3.org/2000/svg">
<path fill-rule="evenodd" clip-rule="evenodd" d="M15.9759 1.22238C16.2088 1.01335 16.5169 0.903773 16.8322 0.917829C23.4979 1.11737 29.0688 5.95633 30.0785 12.4238C30.0849 12.4624 30.0849 12.5018 30.0785 12.5404C30.1002 12.8464 29.9968 13.1483 29.7911 13.3793C29.5854 13.6103 29.2943 13.7514 28.9823 13.7713L17.7831 14.5099C17.4127 14.5427 17.0454 14.4209 16.7714 14.1742C16.4974 13.9276 16.342 13.579 16.3435 13.2142L15.5908 2.21355V2.03215C15.6045 1.72276 15.743 1.43142 15.9759 1.22238ZM15.2077 17.3864L24.9146 16.7644L24.9806 16.7904C25.3974 16.7972 25.7944 16.9662 26.0842 17.2602C26.374 17.5543 26.5328 17.9492 26.5258 18.3582C26.1433 23.9321 22.0567 28.5892 16.4955 29.7891C10.9343 30.9889 5.23342 28.4433 2.50285 23.541C1.69995 22.1291 1.19257 20.5741 1.0105 18.9672C0.939883 18.491 0.908965 18.01 0.918053 17.5289C0.936457 11.6019 5.15628 6.48609 11.0608 5.23256C11.7755 5.09878 12.4922 5.45566 12.804 6.10069C12.8817 6.21774 12.9438 6.34401 12.9889 6.47645C13.0996 8.18495 13.2144 9.87727 13.3287 11.5625C13.419 12.8934 13.509 14.2199 13.5964 15.5465C13.5919 15.8589 13.641 16.1699 13.7417 16.4664C13.9787 17.0498 14.5685 17.4199 15.2077 17.3864Z" fill="white"/>
</svg>
