<svg width="33" height="25" viewBox="0 0 33 25" fill="none" xmlns="http://www.w3.org/2000/svg">
<path fill-rule="evenodd" clip-rule="evenodd" d="M22.5642 7.00622C22.5642 10.4328 19.8324 13.1804 16.4256 13.1804C13.0188 13.1804 10.2871 10.4328 10.2871 7.00622C10.2871 3.57829 13.0188 0.833313 16.4256 0.833313C19.8324 0.833313 22.5642 3.57829 22.5642 7.00622ZM16.4257 24.1666C11.4219 24.1666 7.14937 23.3734 7.14937 20.2002C7.14937 17.0258 11.3945 16.2036 16.4257 16.2036C21.4295 16.2036 25.7021 16.9969 25.7021 20.1713C25.7021 23.3445 21.457 24.1666 16.4257 24.1666ZM25.1874 7.11759C25.1874 8.86439 24.6664 10.4917 23.7524 11.8445C23.6584 11.9837 23.7419 12.1715 23.9078 12.2004C24.1363 12.2398 24.3726 12.2621 24.6129 12.2687C27.009 12.3317 29.1597 10.7806 29.7538 8.44542C30.6339 4.97677 28.0498 1.86273 24.7591 1.86273C24.4014 1.86273 24.0592 1.90082 23.7263 1.96912C23.6806 1.97962 23.6322 2.00064 23.6061 2.04135C23.5748 2.09126 23.5983 2.15824 23.6296 2.20159C24.6181 3.59509 25.1874 5.29461 25.1874 7.11759ZM29.156 14.7058C30.766 15.0223 31.825 15.6685 32.2638 16.6076C32.6346 17.3785 32.6346 18.2729 32.2638 19.0426C31.5926 20.4991 29.4289 20.9667 28.5879 21.0875C28.4143 21.1138 28.2745 20.9628 28.2928 20.7881C28.7224 16.752 25.3052 14.8384 24.4211 14.3985C24.3833 14.3788 24.3754 14.3486 24.3794 14.3302C24.382 14.317 24.3976 14.296 24.4264 14.2921C26.3394 14.2566 28.396 14.5193 29.156 14.7058ZM8.38743 12.2686C8.62769 12.262 8.86274 12.241 9.09256 12.2003C9.25839 12.1714 9.34196 11.9836 9.24795 11.8443C8.33389 10.4916 7.81288 8.86427 7.81288 7.11747C7.81288 5.29449 8.3822 3.59497 9.37069 2.20147C9.40203 2.15813 9.42423 2.09114 9.3942 2.04124C9.36808 2.00183 9.31846 1.97951 9.27406 1.969C8.93978 1.9007 8.59766 1.86262 8.23987 1.86262C4.94927 1.86262 2.3651 4.97665 3.24651 8.4453C3.84065 10.7805 5.99129 12.3316 8.38743 12.2686ZM8.6207 14.3294C8.62462 14.3491 8.61678 14.378 8.58022 14.399C7.69489 14.839 4.27762 16.7526 4.70723 20.7873C4.72551 20.9633 4.5871 21.113 4.41342 21.0881C3.57249 20.9672 1.40879 20.4997 0.73761 19.0431C0.365458 18.2722 0.365458 17.3791 0.73761 16.6081C1.17636 15.669 2.23405 15.0229 3.8441 14.705C4.60538 14.5198 6.6607 14.2571 8.575 14.2926C8.60372 14.2965 8.61809 14.3176 8.6207 14.3294Z" fill="white"/>
</svg>
