<svg width="115" height="124" viewBox="0 0 115 124" fill="none" xmlns="http://www.w3.org/2000/svg">
<path d="M110.751 98.8038H83.9072V69.1976L110.751 98.8038Z" fill="url(#paint0_linear)"/>
<path d="M106.997 84.4965C111.417 84.4965 115.001 80.9131 115.001 76.4929C115.001 72.0726 111.417 68.4893 106.997 68.4893C102.577 68.4893 98.9934 72.0726 98.9934 76.4929C98.9934 80.9131 102.577 84.4965 106.997 84.4965Z" fill="white"/>
<path d="M110.751 38.1039L83.9072 69.1976V98.8038L110.751 38.1039Z" fill="white"/>
<path fill-rule="evenodd" clip-rule="evenodd" d="M13.2632 93.8287V99.1576H32.2026V109.894H13.2632V122.433C14.7554 123.138 16.2858 123.647 17.8546 124C27.0756 122.041 35.7227 113.616 36.0288 98.6874L36.1053 93.7895C36.067 93.8287 13.2632 93.8287 13.2632 93.8287Z" fill="white" fill-opacity="0.3"/>
<path d="M35.8808 94.1927L36.1053 82.7354C30.1563 82.2322 24.0951 82 18.0339 82C11.9727 82 5.98636 82.2322 0 82.6967L0.149659 91.6768L0.299318 99.0311C0.299318 99.0311 0.374148 105.882 2.58162 110.721C6.24827 119.546 13.5816 122.526 13.5816 122.526V110.14H32.1019V99.5343H13.5067L13.5067 94.2314H35.8808V94.1927Z" fill="white"/>
<path d="M52 0V27.9633L79.9633 27.9633V0L52 0ZM60.2044 23.3142L57.6063 23.3142V4.64916L60.2044 4.64916V23.3142ZM67.3149 23.3142H64.7168V4.64916L67.3149 4.64916V23.3142ZM74.357 23.3142H71.7589V4.64916L74.357 4.64916V23.3142Z" fill="white" fill-opacity="0.5"/>
<defs>
<linearGradient id="paint0_linear" x1="110.763" y1="83.9972" x2="83.9072" y2="83.9972" gradientUnits="userSpaceOnUse">
<stop stop-color="white"/>
<stop offset="1" stop-color="white" stop-opacity="0.53"/>
</linearGradient>
</defs>
</svg>
