<svg width="31" height="27" viewBox="0 0 31 27" fill="none" xmlns="http://www.w3.org/2000/svg">
<path fill-rule="evenodd" clip-rule="evenodd" d="M26.818 13.5014C26.818 14.6878 27.7921 15.6531 28.9894 15.6531C29.5932 15.6531 30.0832 16.1386 30.0832 16.7368V20.6398C30.0832 23.9402 27.3736 26.625 24.0428 26.625H6.95838C3.62755 26.625 0.916504 23.9402 0.916504 20.6398V16.7368C0.916504 16.1386 1.4065 15.6531 2.01025 15.6531C3.209 15.6531 4.18317 14.6878 4.18317 13.5014C4.18317 12.3454 3.24838 11.4755 2.01025 11.4755C1.72005 11.4755 1.44296 11.3614 1.23734 11.1576C1.03171 10.9539 0.916504 10.6779 0.916504 10.3918L0.919421 6.36167C0.919421 3.06127 3.629 0.375 6.95984 0.375H24.0398C27.3707 0.375 30.0817 3.06127 30.0817 6.36167L30.0832 10.2661C30.0832 10.5522 29.968 10.8296 29.7638 11.0319C29.5582 11.2357 29.2811 11.3498 28.9894 11.3498C27.7921 11.3498 26.818 12.3151 26.818 13.5014ZM18.7839 14.445L20.5033 12.7862C20.8023 12.5001 20.9058 12.0781 20.776 11.688C20.6477 11.2978 20.3123 11.0204 19.9068 10.964L17.5312 10.6201L16.4681 8.48728C16.2858 8.12025 15.9154 7.89194 15.5027 7.8905H15.4998C15.0885 7.8905 14.7181 8.11881 14.5329 8.48584L13.4698 10.6201L11.0985 10.9626C10.6887 11.0204 10.3533 11.2978 10.2235 11.688C10.0952 12.0781 10.1987 12.5001 10.4962 12.7862L12.2156 14.445L11.8102 16.7903C11.7402 17.1949 11.905 17.5966 12.2404 17.8379C12.43 17.9723 12.6502 18.0417 12.8733 18.0417C13.0439 18.0417 13.216 17.9998 13.3735 17.9174L15.4998 16.8105L17.6216 17.9145C17.9891 18.1096 18.4252 18.0792 18.7591 17.8365C19.096 17.5966 19.2608 17.1949 19.1908 16.7903L18.7839 14.445Z" fill="white"/>
</svg>
