<svg width="25" height="31" viewBox="0 0 25 31" fill="none" xmlns="http://www.w3.org/2000/svg">
<path fill-rule="evenodd" clip-rule="evenodd" d="M0.104004 13.0468C0.104004 6.33861 5.70966 0.916687 12.4903 0.916687C19.29 0.916687 24.8957 6.33861 24.8957 13.0468C24.8957 16.4271 23.6663 19.5653 21.6429 22.2252C19.4106 25.1593 16.6592 27.7157 13.5623 29.7223C12.8535 30.186 12.2138 30.221 11.4359 29.7223C8.32133 27.7157 5.56996 25.1593 3.35682 22.2252C1.3319 19.5653 0.104004 16.4271 0.104004 13.0468ZM8.40814 13.4245C8.40814 15.6717 10.2419 17.4391 12.4903 17.4391C14.7402 17.4391 16.5916 15.6717 16.5916 13.4245C16.5916 11.1947 14.7402 9.34124 12.4903 9.34124C10.2419 9.34124 8.40814 11.1947 8.40814 13.4245Z" fill="white"/>
</svg>
