<svg width="31" height="31" viewBox="0 0 31 31" fill="none" xmlns="http://www.w3.org/2000/svg">
<path fill-rule="evenodd" clip-rule="evenodd" d="M13.6106 3.13187C12.633 3.13187 11.8014 3.81119 11.5679 4.7268H19.4177C19.1842 3.81119 18.3526 3.13187 17.375 3.13187H13.6106ZM21.6354 4.72679H24.5244C27.5884 4.72679 30.0834 7.2521 30.0834 10.3533C30.0834 10.3533 29.9959 11.6662 29.9667 13.4945C29.9638 13.6392 29.8937 13.781 29.7785 13.8666C29.0767 14.385 28.4347 14.8132 28.3763 14.8428C25.9543 16.4672 23.1397 17.6103 20.1414 18.1788C19.9458 18.2172 19.7533 18.1153 19.654 17.9411C18.8136 16.485 17.2437 15.5369 15.4928 15.5369C13.7536 15.5369 12.169 16.4746 11.3038 17.9322C11.2031 18.1035 11.0135 18.2025 10.8194 18.1655C7.84584 17.5955 5.03131 16.454 2.62385 14.8575L1.22315 13.8829C1.10643 13.809 1.03347 13.6761 1.03347 13.5284C0.989701 12.7753 0.916748 10.3533 0.916748 10.3533C0.916748 7.2521 3.41175 4.72679 6.47578 4.72679H9.35013C9.62735 2.58545 11.422 0.916687 13.6106 0.916687H17.375C19.5636 0.916687 21.3582 2.58545 21.6354 4.72679ZM29.5874 16.6889L29.529 16.7184C26.5817 18.6973 23.0362 20.0117 19.3156 20.5581C18.7903 20.6319 18.265 20.2923 18.1191 19.7606C17.7981 18.5497 16.7622 17.7522 15.522 17.7522H15.5074H15.4782C14.238 17.7522 13.2021 18.5497 12.8811 19.7606C12.7352 20.2923 12.2099 20.6319 11.6847 20.5581C7.96404 20.0117 4.41852 18.6973 1.47121 16.7184C1.45662 16.7037 1.31072 16.6151 1.19399 16.6889C1.06268 16.7627 1.06268 16.94 1.06268 16.94L1.16481 24.4716C1.16481 27.5728 3.64522 30.0834 6.70925 30.0834H24.2764C27.3404 30.0834 29.8208 27.5728 29.8208 24.4716L29.9375 16.94C29.9375 16.94 29.9375 16.7627 29.8062 16.6889C29.7333 16.6446 29.6457 16.6594 29.5874 16.6889ZM16.5871 22.8766C16.5871 23.4969 16.1056 23.9842 15.4928 23.9842C14.8946 23.9842 14.3985 23.4969 14.3985 22.8766V20.9716C14.3985 20.3661 14.8946 19.864 15.4928 19.864C16.1056 19.864 16.5871 20.3661 16.5871 20.9716V22.8766Z" fill="white"/>
</svg>
