<svg width="31" height="29" viewBox="0 0 31 29" fill="none" xmlns="http://www.w3.org/2000/svg">
<path fill-rule="evenodd" clip-rule="evenodd" d="M11.8544 15.3074C15.8714 15.3074 19.0915 12.0457 19.0915 7.97662C19.0915 3.90757 15.8714 0.645813 11.8544 0.645813C7.83727 0.645813 4.61718 3.90757 4.61718 7.97662C4.61718 12.0457 7.83727 15.3074 11.8544 15.3074ZM11.8542 18.8971C5.95416 18.8971 0.916748 19.8405 0.916748 23.6094C0.916748 27.3768 5.9235 28.3541 11.8542 28.3541C17.7529 28.3541 22.7917 27.4108 22.7917 23.6419C22.7917 19.873 17.785 18.8971 11.8542 18.8971ZM27.0179 10.9823H28.7724C29.4946 10.9823 30.0834 11.5794 30.0834 12.3117C30.0834 13.0441 29.4946 13.6412 28.7724 13.6412H27.0179V15.358C27.0179 16.0904 26.4306 16.6875 25.7069 16.6875C24.9847 16.6875 24.3959 16.0904 24.3959 15.358V13.6412H22.6444C21.9207 13.6412 21.3334 13.0441 21.3334 12.3117C21.3334 11.5794 21.9207 10.9823 22.6444 10.9823H24.3959V9.26692C24.3959 8.53459 24.9847 7.93748 25.7069 7.93748C26.4306 7.93748 27.0179 8.53459 27.0179 9.26692V10.9823Z" fill="white"/>
</svg>
