<svg width="48" height="48" viewBox="0 0 48 48" fill="none" xmlns="http://www.w3.org/2000/svg">
<path fill-rule="evenodd" clip-rule="evenodd" d="M29.8523 3.68747L24.6619 0.692993L6.80619 10.7853C5.07219 11.7654 4 13.603 4 15.5949V36.0278L10.9658 40.1078L16.085 43.1635L15.7747 21.7508C15.7531 20.2598 16.5343 18.8722 17.8203 18.1174L31.623 10.0158L33.346 11.0739L19.8134 19.0546C18.5501 19.7997 17.7748 21.1571 17.7748 22.6237V44.0131L23.2646 47.307V26.0205C23.2646 24.5522 24.0417 23.1936 25.3073 22.4491L43.6271 11.6728L31.4495 4.68565L12.9453 15.4648C11.6711 16.207 10.8875 17.5705 10.8875 19.0451V34.575L9.19043 33.6322V18.9351C9.19043 16.9719 10.2322 15.1562 11.9271 14.1655L29.8523 3.68747Z" fill="url(#paint0_linear)" fill-opacity="0.3"/>
<path fill-rule="evenodd" clip-rule="evenodd" d="M9.19042 33.6322V18.9351C9.19042 16.9719 10.2322 15.1562 11.9271 14.1655L29.8523 3.68747L24.6619 0.692993L6.80619 10.7853C5.07219 11.7654 4 13.603 4 15.5949V36.0278L10.9658 40.1078L16.085 43.1635L15.7747 21.7508C15.7531 20.2598 16.5343 18.8722 17.8203 18.1174L31.623 10.0158L33.346 11.0739L19.8134 19.0546C18.5501 19.7997 17.7748 21.1571 17.7748 22.6237V44.0131L23.2646 47.307V26.0205C23.2646 24.5522 24.0417 23.1936 25.3073 22.4491L43.6271 11.6728L31.4495 4.68565L12.9453 15.4648C11.6711 16.207 10.8875 17.5705 10.8875 19.0451V34.575L9.19042 33.6322ZM31.4534 5.88217L13.4667 16.3599C12.5111 16.9166 11.9233 17.9392 11.9233 19.0451V36.3355L8.15456 34.2417V18.9351C8.15456 16.6038 9.39169 14.4477 11.4043 13.2712L27.7896 3.69334L24.6566 1.88585L7.3159 11.6871C5.90702 12.4835 5.03587 13.9765 5.03587 15.5949V35.4341L11.4967 39.2183L15.0223 41.3228L14.7389 21.7658C14.7119 19.9021 15.6884 18.1676 17.2959 17.2241L31.635 8.80761L35.3548 11.0918L20.3396 19.9469C19.3921 20.5057 18.8106 21.5237 18.8106 22.6237V43.4266L22.2288 45.4775V26.0205C22.2288 24.1851 23.2001 22.4868 24.7821 21.5563L41.5651 11.6839L31.4534 5.88217Z" fill="#156ACF"/>
<path fill-rule="evenodd" clip-rule="evenodd" d="M30.9504 30.2066C30.9504 28.7416 31.724 27.3855 32.9851 26.6399L44.6252 19.7578V13.2698L27.1215 23.4505C25.846 24.1924 25.0613 25.5566 25.0613 27.0322V47.2072L42.5649 37.0265C43.8405 36.2846 44.6252 34.9204 44.6252 33.4448V22.5445L39.2433 26.0299V30.9323C39.2433 32.4657 38.3964 33.8738 37.0418 34.5925L30.9504 37.8245V30.2066ZM40.2791 26.5932V30.9323C40.2791 32.8491 39.2205 34.6092 37.5273 35.5075L29.9145 39.5467V30.2066C29.9145 28.3754 30.8816 26.6802 32.4579 25.7482L43.5893 19.1669V15.0706L27.6423 24.3459C26.6857 24.9023 26.0971 25.9255 26.0971 27.0322V45.4063L42.0441 36.131C43.0008 35.5746 43.5893 34.5515 43.5893 33.4448V24.4495L40.2791 26.5932Z" fill="url(#paint1_linear)"/>
<defs>
<linearGradient id="paint0_linear" x1="35.4213" y1="6.21762" x2="10.9058" y2="39.3654" gradientUnits="userSpaceOnUse">
<stop stop-color="#004EAA"/>
<stop offset="0.510417" stop-color="#004EAA" stop-opacity="0"/>
<stop offset="1" stop-color="#004EAA"/>
</linearGradient>
<linearGradient id="paint1_linear" x1="26.6596" y1="46.0122" x2="44.1399" y2="14.9362" gradientUnits="userSpaceOnUse">
<stop stop-color="#2A92ED"/>
<stop offset="1" stop-color="#1FBF75"/>
</linearGradient>
</defs>
</svg>
