<svg width="164" height="36" viewBox="0 0 164 36" fill="none" xmlns="http://www.w3.org/2000/svg">
    <path d="M44.3671 23.2461C44.7812 23.2461 45.1201 23.2145 45.3836 23.1514C45.6597 23.0757 45.8793 22.9811 46.0424 22.8675C46.2056 22.7413 46.3185 22.5962 46.3812 22.4322C46.444 22.2681 46.4754 22.0852 46.4754 21.8833C46.4754 21.4543 46.2746 21.1009 45.873 20.8233C45.4714 20.5331 44.7812 20.224 43.8024 19.8959C43.3757 19.7445 42.9491 19.5741 42.5224 19.3849C42.0957 19.183 41.713 18.9369 41.3741 18.6467C41.0353 18.3439 40.7592 17.9842 40.5459 17.5678C40.3326 17.1388 40.2259 16.6215 40.2259 16.0158C40.2259 15.4101 40.3388 14.8675 40.5647 14.388C40.7906 13.8959 41.1106 13.4795 41.5247 13.1388C41.9388 12.7981 42.4408 12.5394 43.0306 12.3628C43.6204 12.1735 44.2855 12.0789 45.0259 12.0789C45.9044 12.0789 46.6636 12.1735 47.3036 12.3628C47.9436 12.5521 48.4707 12.7603 48.8848 12.9874L48.0377 15.3155C47.6738 15.1262 47.266 14.9621 46.8142 14.8233C46.375 14.6719 45.8416 14.5962 45.2142 14.5962C44.5114 14.5962 44.0032 14.6972 43.6895 14.8991C43.3883 15.0883 43.2377 15.3849 43.2377 15.7886C43.2377 16.0284 43.2942 16.2303 43.4071 16.3943C43.52 16.5584 43.6769 16.7098 43.8777 16.8486C44.091 16.9748 44.3295 17.0946 44.593 17.2082C44.8691 17.3091 45.1703 17.4164 45.4965 17.53C46.1742 17.7823 46.764 18.0347 47.266 18.2871C47.7679 18.5268 48.182 18.8107 48.5083 19.1388C48.8472 19.4669 49.0981 19.8517 49.2613 20.2934C49.4244 20.735 49.506 21.2713 49.506 21.9022C49.506 23.1262 49.0793 24.0789 48.226 24.7603C47.3726 25.429 46.0863 25.7634 44.3671 25.7634C43.7898 25.7634 43.2691 25.7256 42.8047 25.6498C42.3404 25.5868 41.9263 25.5047 41.5624 25.4038C41.211 25.3028 40.9035 25.1956 40.64 25.082C40.389 24.9685 40.1757 24.8612 40 24.7603L40.8282 22.4133C41.2173 22.6278 41.6941 22.8233 42.2588 23C42.8361 23.164 43.5389 23.2461 44.3671 23.2461Z" fill="white"/>
    <path d="M54.3819 25.4984H51.5772V15.5426H54.3819V25.4984ZM54.6455 12.6656C54.6455 13.183 54.476 13.5931 54.1372 13.8959C53.8109 14.1861 53.4219 14.3312 52.9701 14.3312C52.5184 14.3312 52.1231 14.1861 51.7842 13.8959C51.458 13.5931 51.2948 13.183 51.2948 12.6656C51.2948 12.1483 51.458 11.7445 51.7842 11.4543C52.1231 11.1514 52.5184 11 52.9701 11C53.4219 11 53.8109 11.1514 54.1372 11.4543C54.476 11.7445 54.6455 12.1483 54.6455 12.6656Z" fill="white"/>
    <path d="M57.0184 15.8833C57.4953 15.7445 58.1102 15.6183 58.8631 15.5047C59.6161 15.3785 60.4067 15.3155 61.2349 15.3155C62.0757 15.3155 62.7722 15.429 63.3244 15.6562C63.8891 15.8707 64.3346 16.1798 64.6609 16.5836C64.9871 16.9874 65.2193 17.4669 65.3573 18.0221C65.4954 18.5773 65.5644 19.1956 65.5644 19.877V25.4984H62.7597V20.2177C62.7597 19.3091 62.6404 18.6656 62.402 18.2871C62.1636 17.9085 61.7181 17.7192 61.0655 17.7192C60.8647 17.7192 60.6514 17.7319 60.4255 17.7571C60.1996 17.7697 59.9988 17.7886 59.8232 17.8139V25.4984H57.0184V15.8833Z" fill="white"/>
    <path d="M67.6325 20.5205C67.6325 19.8013 67.7454 19.1262 67.9713 18.4953C68.2098 17.8517 68.5486 17.2965 68.9878 16.8297C69.427 16.3502 69.9604 15.9716 70.5878 15.694C71.2153 15.4164 71.9306 15.2776 72.7337 15.2776C73.2608 15.2776 73.7439 15.3281 74.1832 15.429C74.6224 15.5174 75.0491 15.6498 75.4632 15.8265L74.8796 18.0789C74.6161 17.9779 74.3275 17.8896 74.0137 17.8139C73.7 17.7382 73.3486 17.7003 72.9596 17.7003C72.1314 17.7003 71.5102 17.959 71.0961 18.4763C70.6945 18.9937 70.4937 19.6751 70.4937 20.5205C70.4937 21.4164 70.6819 22.1104 71.0584 22.6025C71.4474 23.0946 72.1188 23.3407 73.0726 23.3407C73.4114 23.3407 73.7753 23.3091 74.1643 23.2461C74.5534 23.183 74.911 23.082 75.2373 22.9432L75.6326 25.2524C75.3063 25.3912 74.8985 25.511 74.409 25.612C73.9196 25.7129 73.38 25.7634 72.7902 25.7634C71.8867 25.7634 71.1086 25.6309 70.4561 25.3659C69.8035 25.0883 69.2639 24.7161 68.8372 24.2492C68.4231 23.7823 68.1156 23.2334 67.9149 22.6025C67.7266 21.959 67.6325 21.265 67.6325 20.5205Z" fill="white"/>
    <path d="M76.5664 20.5962C76.5664 19.7129 76.6982 18.9432 76.9617 18.2871C77.2378 17.6183 77.5955 17.0631 78.0347 16.6215C78.4739 16.1798 78.9759 15.8454 79.5406 15.6183C80.1178 15.3912 80.7076 15.2776 81.31 15.2776C82.7155 15.2776 83.8261 15.7129 84.6418 16.5836C85.4575 17.4416 85.8653 18.7098 85.8653 20.388C85.8653 20.5521 85.8591 20.735 85.8465 20.9369C85.834 21.1262 85.8214 21.2965 85.8089 21.448H79.4465C79.5092 22.0284 79.779 22.489 80.2559 22.8297C80.7327 23.1703 81.3727 23.3407 82.1759 23.3407C82.6904 23.3407 83.1924 23.2965 83.6818 23.2082C84.1838 23.1073 84.5916 22.9874 84.9053 22.8486L85.2818 25.1388C85.1312 25.2145 84.9304 25.2902 84.6794 25.3659C84.4285 25.4416 84.1461 25.5047 83.8324 25.5552C83.5312 25.6183 83.2049 25.6688 82.8535 25.7066C82.5022 25.7445 82.1508 25.7634 81.7994 25.7634C80.9084 25.7634 80.1304 25.6309 79.4653 25.3659C78.8127 25.1009 78.2668 24.7413 77.8276 24.2871C77.4009 23.8202 77.0809 23.2713 76.8676 22.6404C76.6668 22.0095 76.5664 21.3281 76.5664 20.5962ZM83.1547 19.5174C83.1422 19.2776 83.0983 19.0442 83.023 18.817C82.9602 18.5899 82.8535 18.388 82.703 18.2114C82.5649 18.0347 82.383 17.8896 82.1571 17.776C81.9437 17.6625 81.6739 17.6057 81.3476 17.6057C81.0339 17.6057 80.7641 17.6625 80.5382 17.776C80.3123 17.877 80.1241 18.0158 79.9735 18.1924C79.8229 18.3691 79.7037 18.5773 79.6159 18.817C79.5406 19.0442 79.4841 19.2776 79.4465 19.5174H83.1547Z" fill="white"/>
    <path d="M93.9969 18.041C93.7459 17.9779 93.451 17.9148 93.1122 17.8517C92.7734 17.776 92.4094 17.7382 92.0204 17.7382C91.8447 17.7382 91.6314 17.7571 91.3804 17.795C91.142 17.8202 90.96 17.8517 90.8345 17.8896V25.4984H88.0298V16.0726C88.5317 15.8959 89.1216 15.7319 89.7992 15.5804C90.4894 15.4164 91.2549 15.3344 92.0957 15.3344C92.2463 15.3344 92.4283 15.347 92.6416 15.3722C92.8549 15.3849 93.0683 15.4101 93.2816 15.4479C93.4949 15.4732 93.7083 15.511 93.9216 15.5615C94.1349 15.5994 94.3169 15.6498 94.4675 15.7129L93.9969 18.041Z" fill="white"/>
    <path d="M95.3166 20.5962C95.3166 19.7129 95.4484 18.9432 95.7119 18.2871C95.988 17.6183 96.3457 17.0631 96.7849 16.6215C97.2241 16.1798 97.7261 15.8454 98.2908 15.6183C98.868 15.3912 99.4578 15.2776 100.06 15.2776C101.466 15.2776 102.576 15.7129 103.392 16.5836C104.208 17.4416 104.616 18.7098 104.616 20.388C104.616 20.5521 104.609 20.735 104.597 20.9369C104.584 21.1262 104.572 21.2965 104.559 21.448H98.1967C98.2594 22.0284 98.5292 22.489 99.0061 22.8297C99.4829 23.1703 100.123 23.3407 100.926 23.3407C101.441 23.3407 101.943 23.2965 102.432 23.2082C102.934 23.1073 103.342 22.9874 103.656 22.8486L104.032 25.1388C103.881 25.2145 103.681 25.2902 103.43 25.3659C103.179 25.4416 102.896 25.5047 102.583 25.5552C102.281 25.6183 101.955 25.6688 101.604 25.7066C101.252 25.7445 100.901 25.7634 100.55 25.7634C99.6586 25.7634 98.8806 25.6309 98.2155 25.3659C97.5629 25.1009 97.017 24.7413 96.5778 24.2871C96.1511 23.8202 95.8311 23.2713 95.6178 22.6404C95.417 22.0095 95.3166 21.3281 95.3166 20.5962ZM101.905 19.5174C101.892 19.2776 101.848 19.0442 101.773 18.817C101.71 18.5899 101.604 18.388 101.453 18.2114C101.315 18.0347 101.133 17.8896 100.907 17.776C100.694 17.6625 100.424 17.6057 100.098 17.6057C99.7841 17.6057 99.5143 17.6625 99.2884 17.776C99.0625 17.877 98.8743 18.0158 98.7237 18.1924C98.5731 18.3691 98.4539 18.5773 98.3661 18.817C98.2908 19.0442 98.2343 19.2776 98.1967 19.5174H101.905Z" fill="white"/>
    <path d="M117.853 14.653C116.485 14.653 115.493 15.0379 114.879 15.8076C114.276 16.5647 113.975 17.6057 113.975 18.9306C113.975 19.5741 114.05 20.1609 114.201 20.6909C114.352 21.2082 114.577 21.6562 114.879 22.0347C115.18 22.4133 115.556 22.7098 116.008 22.9243C116.46 23.1262 116.987 23.2271 117.589 23.2271C117.915 23.2271 118.192 23.2208 118.417 23.2082C118.656 23.1956 118.863 23.1703 119.039 23.1325V18.571H121.975V25.0631C121.624 25.2019 121.059 25.347 120.281 25.4984C119.503 25.6625 118.543 25.7445 117.401 25.7445C116.422 25.7445 115.531 25.5931 114.728 25.2902C113.937 24.9874 113.26 24.5457 112.695 23.9653C112.13 23.3849 111.691 22.6719 111.377 21.8265C111.076 20.9811 110.926 20.0158 110.926 18.9306C110.926 17.8328 111.095 16.8612 111.434 16.0158C111.773 15.1703 112.237 14.4574 112.827 13.877C113.417 13.2839 114.107 12.836 114.897 12.5331C115.701 12.2303 116.554 12.0789 117.457 12.0789C118.072 12.0789 118.625 12.123 119.114 12.2114C119.616 12.2871 120.043 12.3817 120.394 12.4953C120.758 12.5962 121.053 12.7035 121.279 12.817C121.517 12.9306 121.687 13.0189 121.787 13.082L120.94 15.4479C120.538 15.2334 120.074 15.0505 119.547 14.8991C119.032 14.735 118.468 14.653 117.853 14.653Z" fill="white"/>
    <path d="M130.486 18.041C130.235 17.9779 129.94 17.9148 129.602 17.8517C129.263 17.776 128.899 17.7382 128.51 17.7382C128.334 17.7382 128.121 17.7571 127.87 17.795C127.631 17.8202 127.449 17.8517 127.324 17.8896V25.4984H124.519V16.0726C125.021 15.8959 125.611 15.7319 126.289 15.5804C126.979 15.4164 127.744 15.3344 128.585 15.3344C128.736 15.3344 128.918 15.347 129.131 15.3722C129.344 15.3849 129.558 15.4101 129.771 15.4479C129.984 15.4732 130.198 15.511 130.411 15.5615C130.624 15.5994 130.806 15.6498 130.957 15.7129L130.486 18.041Z" fill="white"/>
    <path d="M141.538 20.5016C141.538 21.2839 141.425 22.0032 141.199 22.6593C140.973 23.3028 140.647 23.858 140.22 24.3249C139.794 24.7792 139.279 25.1325 138.677 25.3849C138.087 25.6372 137.422 25.7634 136.681 25.7634C135.953 25.7634 135.288 25.6372 134.686 25.3849C134.096 25.1325 133.588 24.7792 133.161 24.3249C132.735 23.858 132.402 23.3028 132.164 22.6593C131.925 22.0032 131.806 21.2839 131.806 20.5016C131.806 19.7192 131.925 19.0063 132.164 18.3628C132.415 17.7192 132.753 17.1703 133.18 16.7161C133.619 16.2618 134.134 15.9085 134.724 15.6562C135.326 15.4038 135.979 15.2776 136.681 15.2776C137.397 15.2776 138.049 15.4038 138.639 15.6562C139.241 15.9085 139.756 16.2618 140.183 16.7161C140.609 17.1703 140.942 17.7192 141.18 18.3628C141.419 19.0063 141.538 19.7192 141.538 20.5016ZM138.677 20.5016C138.677 19.6309 138.501 18.9495 138.15 18.4574C137.811 17.9527 137.321 17.7003 136.681 17.7003C136.041 17.7003 135.546 17.9527 135.194 18.4574C134.843 18.9495 134.667 19.6309 134.667 20.5016C134.667 21.3722 134.843 22.0662 135.194 22.5836C135.546 23.0883 136.041 23.3407 136.681 23.3407C137.321 23.3407 137.811 23.0883 138.15 22.5836C138.501 22.0662 138.677 21.3722 138.677 20.5016Z" fill="white"/>
    <path d="M152.162 25.1577C151.686 25.2965 151.071 25.4227 150.318 25.5363C149.565 25.6625 148.774 25.7256 147.946 25.7256C147.105 25.7256 146.402 25.612 145.838 25.3849C145.285 25.1577 144.846 24.8423 144.52 24.4385C144.194 24.0221 143.962 23.53 143.823 22.9621C143.685 22.3943 143.616 21.7697 143.616 21.0883V15.5426H146.421V20.7476C146.421 21.6562 146.54 22.3123 146.779 22.7161C147.017 23.1199 147.463 23.3218 148.115 23.3218C148.316 23.3218 148.529 23.3155 148.755 23.3028C148.981 23.2776 149.182 23.2524 149.358 23.2271V15.5426H152.162V25.1577Z" fill="white"/>
    <path d="M161.139 20.5962C161.139 19.7256 160.944 19.0315 160.555 18.5142C160.166 17.9842 159.589 17.7192 158.823 17.7192C158.573 17.7192 158.34 17.7319 158.127 17.7571C157.914 17.7697 157.738 17.7886 157.6 17.8139V22.9054C157.776 23.0189 158.001 23.1136 158.278 23.1893C158.566 23.265 158.855 23.3028 159.143 23.3028C160.474 23.3028 161.139 22.4006 161.139 20.5962ZM164 20.5205C164 21.2902 163.906 21.9905 163.718 22.6215C163.529 23.2524 163.253 23.795 162.889 24.2492C162.525 24.7035 162.074 25.0568 161.534 25.3091C160.994 25.5615 160.373 25.6877 159.671 25.6877C159.282 25.6877 158.918 25.6498 158.579 25.5741C158.24 25.4984 157.914 25.3912 157.6 25.2524V29H154.795V15.8833C155.046 15.8076 155.335 15.7382 155.661 15.6751C155.987 15.5994 156.326 15.5363 156.678 15.4858C157.042 15.4353 157.405 15.3975 157.769 15.3722C158.146 15.3344 158.503 15.3155 158.842 15.3155C159.658 15.3155 160.386 15.4416 161.026 15.694C161.666 15.9338 162.205 16.2808 162.645 16.735C163.084 17.1767 163.416 17.7192 163.642 18.3628C163.881 19.0063 164 19.7256 164 20.5205Z" fill="white"/>
    <path fill-rule="evenodd" clip-rule="evenodd" d="M19.9657 2.31263L15.9572 0L2.16722 7.79431C0.828049 8.55124 0 9.97043 0 11.5087V27.2891L5.37966 30.44L9.33324 32.8L9.09357 16.263C9.07688 15.1115 9.68022 14.0398 10.6734 13.4569L21.3332 7.2L22.6639 8.01715L12.2127 14.1807C11.237 14.7561 10.6382 15.8044 10.6382 16.9371V33.4561L14.8781 36V19.5604C14.8781 18.4265 15.4782 17.3772 16.4556 16.8022L30.604 8.47967L21.1993 3.08353L6.90846 11.4083C5.92442 11.9815 5.31918 13.0345 5.31918 14.1733V26.1671L4.00856 25.439V14.0883C4.00856 12.5722 4.81314 11.1699 6.12206 10.4048L19.9657 2.31263Z" fill="url(#paint0_linear)" fill-opacity="0.3"/>
    <path fill-rule="evenodd" clip-rule="evenodd" d="M4.00856 25.439V14.0883C4.00856 12.5722 4.81314 11.1699 6.12206 10.4048L19.9657 2.31263L15.9572 0L2.16722 7.79431C0.828049 8.55124 0 9.97043 0 11.5087V27.2891L5.37966 30.44L9.33324 32.8L9.09357 16.263C9.07688 15.1115 9.68022 14.0398 10.6734 13.4569L21.3332 7.2L22.6639 8.01715L12.2127 14.1807C11.237 14.7561 10.6382 15.8044 10.6382 16.9371V33.4561L14.8781 36V19.5604C14.8781 18.4265 15.4782 17.3772 16.4556 16.8022L30.604 8.47967L21.1993 3.08353L6.90846 11.4083C5.92442 11.9815 5.31918 13.0345 5.31918 14.1733V26.1671L4.00856 25.439ZM21.2023 4.0076L7.31114 12.0995C6.57311 12.5294 6.11918 13.3192 6.11918 14.1733V27.5267L3.20856 25.9097V14.0883C3.20856 12.2879 4.164 10.6227 5.71834 9.71416L18.3727 2.31717L15.9531 0.921243L2.56087 8.49076C1.47279 9.10577 0.799999 10.2589 0.799999 11.5087V26.8305L5.78972 29.7531L8.51255 31.3784L8.29366 16.2746C8.2728 14.8352 9.02697 13.4956 10.2684 12.7669L21.3425 6.26691L24.2153 8.031L12.6191 14.8698C11.8873 15.3013 11.4382 16.0876 11.4382 16.9371V33.0031L14.0781 34.587V19.5604C14.0781 18.143 14.8282 16.8314 16.05 16.1127L29.0115 8.48828L21.2023 4.0076Z" fill="#156ACF"/>
    <path fill-rule="evenodd" clip-rule="evenodd" d="M20.8138 22.7933C20.8138 21.6619 21.4113 20.6146 22.3852 20.0388L31.3748 14.7237V9.71301L17.8567 17.5756C16.8717 18.1485 16.2656 19.2021 16.2656 20.3417V35.9228L29.7837 28.0603C30.7688 27.4873 31.3748 26.4337 31.3748 25.2942V16.8759L27.2184 19.5677V23.3538C27.2184 24.538 26.5643 25.6255 25.5182 26.1805L20.8138 28.6766V22.7933ZM28.0184 20.0027V23.3538C28.0184 24.8341 27.2008 26.1934 25.8931 26.8872L20.0138 30.0067V22.7933C20.0138 21.379 20.7606 20.0699 21.978 19.3501L30.5748 14.2673V11.1038L18.259 18.2671C17.5202 18.6968 17.0656 19.487 17.0656 20.3417V34.5321L29.3815 27.3688C30.1203 26.939 30.5748 26.1488 30.5748 25.2942V18.3471L28.0184 20.0027Z" fill="url(#paint1_linear)"/>
    <defs>
        <linearGradient id="paint0_linear" x1="24.2667" y1="4.26666" x2="5.33333" y2="29.8666" gradientUnits="userSpaceOnUse">
            <stop stop-color="#004EAA"/>
            <stop offset="0.510417" stop-color="#004EAA" stop-opacity="0"/>
            <stop offset="1" stop-color="#004EAA"/>
        </linearGradient>
        <linearGradient id="paint1_linear" x1="17.5" y1="35" x2="31" y2="11" gradientUnits="userSpaceOnUse">
            <stop stop-color="#2A92ED"/>
            <stop offset="1" stop-color="#1FBF75"/>
        </linearGradient>
    </defs>
</svg>
