<svg width="220" height="44" viewBox="0 0 220 44" fill="none" xmlns="http://www.w3.org/2000/svg">
<path d="M67.6593 41.9132H64.8621C64.3866 41.9333 63.913 41.8418 63.4793 41.6461C63.0976 41.4024 62.8267 41.0187 62.725 40.5775L62.175 38.7389C61.56 39.2978 60.9147 39.8224 60.2421 40.3104C59.6305 40.7448 58.9778 41.1185 58.2935 41.4261C57.6079 41.7286 56.8913 41.9551 56.1564 42.1018C55.328 42.2606 54.4855 42.3343 53.6421 42.3218C52.6196 42.3336 51.6015 42.1851 50.625 41.8818C49.7498 41.614 48.9411 41.1642 48.2521 40.5618C47.564 39.9609 47.0259 39.2076 46.6807 38.3618C46.3148 37.3836 46.1543 36.3405 46.2093 35.2975C46.2196 34.2864 46.4786 33.2934 46.9635 32.4061C47.5861 31.3487 48.4676 30.4672 49.525 29.8446C50.9846 28.9593 52.576 28.3122 54.2393 27.9275C56.6561 27.3771 59.131 27.1238 61.6093 27.1732V25.7275C61.7213 24.3533 61.3304 22.9851 60.5093 21.8775C60.1122 21.4469 59.624 21.1106 59.0802 20.8931C58.5364 20.6755 57.9508 20.5824 57.3664 20.6203C56.5149 20.5957 55.6653 20.7125 54.8521 20.9661C54.2439 21.1705 53.6591 21.4392 53.1078 21.7675L51.7407 22.5532C51.3176 22.7866 50.841 22.9057 50.3578 22.8989C49.9726 22.9084 49.594 22.7986 49.2735 22.5846C48.9723 22.3676 48.7206 22.089 48.535 21.7675L47.4035 19.7875C50.3243 17.0903 54.1774 15.6313 58.1521 15.7175C59.5287 15.6959 60.8959 15.9469 62.175 16.4561C63.3177 16.916 64.3471 17.6183 65.1921 18.5146C66.0279 19.4203 66.6649 20.4909 67.0621 21.6575C67.5009 22.9528 67.7187 24.3127 67.7064 25.6803L67.6593 41.9132ZM55.6378 38.0318C56.2291 38.0406 56.8195 37.9826 57.3978 37.8589C57.9427 37.7581 58.4714 37.5836 58.9693 37.3404C59.463 37.1147 59.9274 36.8298 60.3521 36.4918C60.8294 36.1251 61.2809 35.726 61.7035 35.2975V30.9761C60.1823 30.9507 58.662 31.0664 57.1621 31.3218C56.1553 31.4855 55.1732 31.7759 54.2393 32.1861C53.6151 32.454 53.073 32.8823 52.6678 33.4275C52.2963 34.0375 52.1437 34.7559 52.2351 35.4643C52.3265 36.1727 52.6565 36.8289 53.1707 37.3246C53.8981 37.8142 54.7615 38.0617 55.6378 38.0318V38.0318Z" fill="#7CD8FF"/>
<path d="M88.2767 21.1828C88.1448 21.4102 87.9619 21.6039 87.7424 21.7485C87.5269 21.8697 87.2823 21.9295 87.0352 21.9214C86.7015 21.9065 86.3748 21.8208 86.0767 21.67L84.8824 21.0571C84.3773 20.82 83.8512 20.6306 83.311 20.4914C82.6458 20.3091 81.9576 20.2244 81.2681 20.24C80.2462 20.1758 79.2313 20.4461 78.3767 21.01C78.0446 21.2355 77.7743 21.5406 77.5903 21.8974C77.4064 22.2543 77.3148 22.6515 77.3238 23.0528C77.3163 23.3097 77.3596 23.5654 77.4513 23.8055C77.543 24.0455 77.6812 24.265 77.8581 24.4514C78.2732 24.8624 78.7572 25.1975 79.2881 25.4414C79.9453 25.7444 80.6226 26.0017 81.3152 26.2114C82.0695 26.4314 82.8867 26.6828 83.6252 26.95C84.4164 27.2115 85.1928 27.5157 85.951 27.8614C86.6827 28.1935 87.3607 28.6331 87.9624 29.1657C88.5637 29.6991 89.0549 30.345 89.4081 31.0671C89.787 31.9054 89.9697 32.819 89.9424 33.7385C89.9584 34.9151 89.7283 36.082 89.2667 37.1643C88.8192 38.2208 88.1367 39.1613 87.271 39.9143C86.3488 40.7087 85.2815 41.317 84.1281 41.7057C82.6987 42.1475 81.2083 42.3596 79.7124 42.3343C78.8375 42.3359 77.9643 42.257 77.1038 42.0985C76.2558 41.9621 75.4202 41.7571 74.6052 41.4857C73.8609 41.2108 73.1408 40.8744 72.4524 40.48C71.8232 40.1239 71.2333 39.7025 70.6924 39.2228L72.1381 36.7714C72.2943 36.5051 72.5161 36.2833 72.7824 36.1271C73.0732 35.9595 73.4056 35.8778 73.741 35.8914C74.132 35.8912 74.5145 36.006 74.841 36.2214C75.171 36.4414 75.5795 36.6771 76.0352 36.9285C76.538 37.2084 77.0637 37.445 77.6067 37.6357C78.3575 37.8769 79.144 37.9885 79.9324 37.9657C80.5763 37.9766 81.2179 37.8864 81.8338 37.6985C82.3082 37.5522 82.7507 37.3176 83.1381 37.0071C83.468 36.7451 83.7273 36.4048 83.8924 36.0171C84.0427 35.6586 84.1228 35.2744 84.1281 34.8857C84.1522 34.342 83.9601 33.811 83.5938 33.4085C83.1868 32.9839 82.7011 32.6423 82.1638 32.4028C81.5052 32.0905 80.8219 31.8329 80.121 31.6328C79.3667 31.4128 78.5495 31.1614 77.7795 30.8943C76.9863 30.6262 76.2097 30.3114 75.4538 29.9514C74.7066 29.6034 74.0176 29.1423 73.411 28.5843C72.8046 28.004 72.3186 27.3098 71.981 26.5414C71.593 25.617 71.4055 24.6208 71.431 23.6185C71.4333 22.5806 71.6471 21.5539 72.0595 20.6014C72.4911 19.6451 73.1235 18.7929 73.9138 18.1028C74.8152 17.3283 75.8549 16.7311 76.9781 16.3428C79.9403 15.4253 83.1228 15.5137 86.0295 16.5942C87.3896 17.1075 88.6303 17.8936 89.6752 18.9042L88.2767 21.1828Z" fill="#7CD8FF"/>
<path d="M93.0652 42.0826V3.14258H99.2723V19.0769C100.249 18.1369 101.368 17.3572 102.588 16.7669C103.915 16.1481 105.367 15.8468 106.831 15.8869C108.113 15.8632 109.386 16.1039 110.571 16.594C111.621 17.0513 112.556 17.7387 113.305 18.6054C114.059 19.533 114.62 20.6014 114.955 21.7483C115.345 23.0316 115.536 24.3671 115.521 25.7083V42.0826H109.235V25.6611C109.32 24.3482 108.929 23.0488 108.135 21.9997C107.723 21.5517 107.215 21.2029 106.649 20.9797C106.083 20.7565 105.473 20.6647 104.867 20.7111C103.817 20.7002 102.78 20.9485 101.849 21.434C100.858 21.9524 99.9563 22.6262 99.178 23.4297V42.0826H93.0652Z" fill="#7CD8FF"/>
<path d="M119.317 42.0828V3.14282H125.603V19.4542C126.57 18.3897 127.719 17.5063 128.997 16.8457C130.41 16.1766 131.96 15.8483 133.523 15.8871C134.856 15.8693 136.175 16.1653 137.373 16.7514C138.567 17.3404 139.602 18.2082 140.39 19.2814C141.3 20.505 141.967 21.892 142.354 23.3671C142.851 25.216 143.084 27.1259 143.046 29.04C143.065 30.855 142.805 32.6623 142.276 34.3985C141.78 35.9299 141.008 37.3574 139.997 38.61C139.061 39.8022 137.869 40.7689 136.509 41.4385C135.079 42.13 133.508 42.4797 131.92 42.46C131.19 42.467 130.462 42.3879 129.751 42.2242C129.15 42.0829 128.565 41.8775 128.007 41.6114C127.444 41.3293 126.917 40.9811 126.436 40.5742C125.965 40.1497 125.523 39.6929 125.116 39.2071L124.849 40.9357C124.789 41.2956 124.605 41.6233 124.33 41.8628C124.041 42.0656 123.692 42.1652 123.34 42.1457L119.317 42.0828ZM131.386 20.7114C130.227 20.6766 129.08 20.9592 128.07 21.5285C127.087 22.1293 126.224 22.9073 125.524 23.8228V35.3257C126.125 36.1149 126.914 36.7415 127.819 37.1485C128.676 37.4979 129.595 37.6742 130.521 37.6671C131.399 37.6835 132.27 37.5009 133.067 37.1328C133.833 36.7856 134.494 36.2437 134.984 35.5614C135.564 34.737 135.981 33.8087 136.21 32.8271C136.506 31.5868 136.648 30.3149 136.634 29.04C136.653 27.7525 136.532 26.4669 136.273 25.2057C136.109 24.2818 135.774 23.3968 135.283 22.5971C134.895 21.9897 134.353 21.4962 133.711 21.1671C132.984 20.8297 132.186 20.6734 131.386 20.7114Z" fill="white"/>
<path d="M167.567 41.913H164.785C164.31 41.9349 163.836 41.8433 163.402 41.6458C163.207 41.5323 163.039 41.3782 162.909 41.1938C162.779 41.0094 162.69 40.7991 162.648 40.5773L162.098 38.7387C161.483 39.2975 160.838 39.8221 160.165 40.3101C159.554 40.7446 158.901 41.1183 158.217 41.4258C157.531 41.7283 156.814 41.9549 156.079 42.1016C155.251 42.2603 154.409 42.334 153.565 42.3216C152.543 42.3334 151.525 42.1849 150.548 41.8816C149.67 41.6197 148.86 41.1692 148.175 40.5616C147.487 39.9607 146.949 39.2073 146.604 38.3616C146.207 37.3951 146.015 36.3573 146.038 35.313C146.054 34.3006 146.318 33.3077 146.808 32.4216C147.431 31.3642 148.312 30.4827 149.369 29.8601C150.828 28.9722 152.42 28.3248 154.084 27.943C156.501 27.3926 158.976 27.1393 161.454 27.1887V25.7273C161.566 24.353 161.175 22.9849 160.354 21.8773C159.956 21.4476 159.468 21.1119 158.924 20.8944C158.38 20.677 157.795 20.5833 157.211 20.6201C156.359 20.5943 155.51 20.7112 154.697 20.9659C154.088 21.1703 153.504 21.439 152.952 21.7673L151.569 22.553C151.147 22.7885 150.67 22.9078 150.187 22.8987C149.807 22.9049 149.434 22.7953 149.118 22.5844C148.813 22.3716 148.56 22.0922 148.379 21.7673L147.248 19.7873C150.164 17.0925 154.011 15.6336 157.981 15.7173C159.363 15.6957 160.735 15.9466 162.019 16.4559C163.157 16.916 164.182 17.6185 165.021 18.5144C165.862 19.4192 166.504 20.4897 166.907 21.6573C167.34 22.9536 167.552 24.3135 167.535 25.6801L167.567 41.913ZM155.498 38.0316C156.089 38.0419 156.68 37.9839 157.258 37.8587C157.803 37.759 158.332 37.5845 158.829 37.3401C159.323 37.1145 159.788 36.8296 160.212 36.4916C160.686 36.1208 161.138 35.722 161.564 35.2973V30.9758C160.042 30.9498 158.522 31.0655 157.022 31.3216C156.015 31.4853 155.033 31.7757 154.099 32.1858C153.473 32.4498 152.93 32.8789 152.528 33.4273C152.157 34.0373 152.004 34.7557 152.095 35.4641C152.187 36.1725 152.517 36.8286 153.031 37.3244C153.758 37.815 154.622 38.0625 155.498 38.0316Z" fill="white"/>
<path d="M190.45 21.6409C190.291 21.8472 190.106 22.0321 189.9 22.1909C189.674 22.3463 189.402 22.4185 189.13 22.3952C188.8 22.3913 188.478 22.2931 188.202 22.1123L187.118 21.4523C186.644 21.1865 186.144 20.9706 185.625 20.808C183.979 20.3181 182.213 20.4125 180.628 21.0752C179.815 21.4599 179.112 22.0437 178.585 22.7723C178.007 23.5746 177.591 24.4821 177.36 25.4438C177.076 26.6112 176.938 27.8095 176.951 29.0109C176.94 30.2452 177.087 31.4759 177.391 32.6723C177.641 33.6454 178.073 34.5624 178.664 35.3752C179.171 36.0925 179.845 36.6751 180.628 37.0723C181.465 37.4599 182.378 37.6533 183.3 37.638C184.116 37.6632 184.931 37.5408 185.704 37.2766C186.255 37.0614 186.782 36.7875 187.275 36.4595C187.7 36.1766 188.061 35.9095 188.375 35.658C188.666 35.4167 189.034 35.2884 189.412 35.2966C189.636 35.2825 189.859 35.329 190.058 35.4314C190.257 35.5338 190.425 35.6881 190.544 35.878L192.335 38.1409C191.667 38.9126 190.901 39.594 190.057 40.168C189.275 40.6951 188.437 41.1326 187.558 41.4723C186.694 41.7963 185.799 42.028 184.887 42.1638C183.976 42.2937 183.057 42.362 182.137 42.368C180.593 42.3778 179.064 42.0731 177.642 41.4723C176.236 40.8818 174.976 39.9916 173.95 38.8638C172.858 37.6453 172.014 36.2254 171.467 34.6838C170.83 32.8724 170.521 30.962 170.555 29.0423C170.536 27.2494 170.812 25.4655 171.372 23.7623C171.871 22.1884 172.695 20.7373 173.792 19.5038C174.887 18.3048 176.227 17.3561 177.721 16.7223C179.426 16.0282 181.254 15.6861 183.095 15.7166C184.834 15.6804 186.561 16.0013 188.171 16.6595C189.632 17.2892 190.959 18.1904 192.084 19.3152L190.45 21.6409Z" fill="white"/>
<path d="M201.56 3.14282V26.1171H202.723C203.058 26.1346 203.392 26.0699 203.697 25.9285C203.99 25.7682 204.247 25.5488 204.451 25.2843L210.863 17.4271C211.123 17.1138 211.43 16.8434 211.774 16.6257C212.16 16.4202 212.594 16.3225 213.031 16.3428H218.72L210.69 25.8814C210.417 26.2189 210.123 26.5391 209.81 26.84C209.514 27.1315 209.188 27.3897 208.836 27.61C209.182 27.8617 209.493 28.1575 209.763 28.49C210.025 28.8252 210.292 29.1866 210.564 29.5742L219.16 42.1457H213.613C213.185 42.1541 212.762 42.0683 212.371 41.8942C212.003 41.688 211.695 41.3903 211.476 41.03L204.907 31.2557C204.733 30.9374 204.471 30.6757 204.153 30.5014C203.793 30.3622 203.407 30.3032 203.021 30.3285H201.607V42.1457H195.321V3.14282H201.56Z" fill="white"/>
<path d="M141.296 7.82573C141.52 7.852 141.747 7.852 141.971 7.82573C142.174 7.79411 142.37 7.73046 142.553 7.63716L142.726 6.06573H141.956C141.913 6.08345 141.868 6.09258 141.822 6.09258C141.776 6.09258 141.731 6.08345 141.688 6.06573C141.657 6.03892 141.632 6.00508 141.615 5.96689C141.599 5.92869 141.592 5.88721 141.594 5.84573L141.72 4.66716H144.863L144.376 8.48573C144.148 8.65781 143.906 8.81026 143.653 8.94145C143.4 9.06417 143.137 9.16409 142.867 9.24002C142.584 9.3217 142.295 9.37952 142.003 9.41288C141.678 9.43735 141.353 9.43735 141.028 9.41288C140.488 9.41857 139.953 9.31152 139.457 9.09859C138.959 8.91978 138.512 8.62327 138.153 8.23431C137.81 7.86257 137.548 7.42383 137.383 6.94573C137.197 6.44265 137.101 5.91068 137.1 5.37431C137.1 4.88727 137.158 4.40199 137.273 3.92859C137.376 3.48155 137.545 3.0525 137.776 2.65573C137.976 2.26216 138.236 1.90176 138.546 1.58716C138.839 1.2773 139.171 1.0078 139.536 0.785734C139.894 0.53365 140.285 0.332671 140.698 0.188591C141.127 0.0622353 141.572 -0.00128327 142.018 1.96434e-05C142.377 0.00142648 142.735 0.038272 143.087 0.11002C143.377 0.180562 143.661 0.275175 143.936 0.392877C144.174 0.512096 144.4 0.654191 144.611 0.817163C144.795 0.967329 144.969 1.1301 145.13 1.30431L144.438 2.16859C144.379 2.25193 144.302 2.32069 144.212 2.36969C144.122 2.41869 144.022 2.44664 143.92 2.45145C143.795 2.44315 143.675 2.39956 143.574 2.32573L143.181 2.07431L142.867 1.90145C142.712 1.83082 142.548 1.78317 142.38 1.76002C142.213 1.743 142.044 1.743 141.877 1.76002C141.494 1.75711 141.116 1.84888 140.777 2.02716C140.44 2.18971 140.149 2.43256 139.928 2.73431C139.678 3.07165 139.487 3.44888 139.363 3.85002C139.232 4.30991 139.169 4.78626 139.174 5.26431C139.168 5.63069 139.216 5.99595 139.316 6.34859C139.395 6.64875 139.54 6.9277 139.74 7.16573C139.91 7.38379 140.131 7.55651 140.384 7.66859C140.67 7.79778 140.983 7.85187 141.296 7.82573Z" fill="#33aa7e"/>
<path d="M147.723 7.66872H150.866L150.662 9.24015H145.476L146.607 0.188721H148.65L147.723 7.66872Z" fill="#33aa7e"/>
<path d="M160.026 4.14923C160.025 4.62585 159.967 5.10062 159.853 5.56352C159.746 6.00182 159.582 6.42437 159.366 6.82066C159.155 7.20751 158.896 7.56647 158.596 7.88923C158.298 8.20424 157.96 8.47895 157.591 8.70638C157.209 8.92692 156.803 9.10102 156.381 9.22495C155.931 9.35239 155.465 9.41587 154.998 9.41352C154.458 9.41394 153.924 9.3071 153.426 9.09923C152.959 8.89839 152.54 8.59809 152.201 8.21923C151.852 7.8516 151.589 7.41161 151.431 6.93066C151.249 6.42678 151.159 5.89472 151.163 5.35923C151.156 4.87694 151.214 4.39588 151.336 3.92923C151.438 3.48901 151.602 3.06563 151.823 2.67209C152.029 2.28162 152.288 1.92192 152.593 1.60352C152.896 1.29299 153.233 1.01876 153.599 0.786375C153.984 0.562959 154.396 0.388743 154.825 0.267803C155.275 0.139324 155.74 0.0758239 156.208 0.0792318C156.747 0.0804618 157.281 0.187231 157.779 0.393518C158.24 0.59843 158.652 0.898301 158.989 1.27352C159.333 1.65095 159.595 2.09489 159.759 2.5778C159.937 3.08265 160.027 3.61406 160.026 4.14923ZM157.921 4.14923C157.929 3.79925 157.887 3.44989 157.795 3.11209C157.712 2.82867 157.579 2.56249 157.402 2.32637C157.232 2.10832 157.011 1.9356 156.758 1.82352C156.483 1.73764 156.193 1.71613 155.909 1.76066C155.516 1.75582 155.127 1.84754 154.778 2.0278C154.444 2.20132 154.154 2.44851 153.929 2.75066C153.683 3.09763 153.502 3.48629 153.395 3.8978C153.264 4.37382 153.201 4.86569 153.206 5.35923C153.201 5.70491 153.249 6.04932 153.348 6.38066C153.422 6.66439 153.55 6.93118 153.725 7.16638C153.899 7.38478 154.119 7.5619 154.369 7.68495C154.637 7.80118 154.926 7.86006 155.218 7.8578C155.611 7.86265 156 7.77092 156.349 7.59066C156.686 7.42206 156.978 7.17398 157.198 6.8678C157.444 6.52666 157.625 6.14312 157.732 5.73638C157.87 5.23504 157.933 4.71617 157.921 4.19638V4.14923Z" fill="#33aa7e"/>
<path d="M160.498 9.30365L161.629 0.189369H164.772C165.232 0.181237 165.691 0.228724 166.139 0.330797C166.479 0.416493 166.798 0.565801 167.082 0.770797C167.311 0.947286 167.489 1.18014 167.601 1.44651C167.717 1.71974 167.776 2.01391 167.774 2.3108C167.774 2.55485 167.742 2.79792 167.679 3.03365C167.61 3.26395 167.504 3.48152 167.365 3.67794C167.218 3.89017 167.031 4.07167 166.815 4.21223C166.572 4.39148 166.301 4.52952 166.014 4.6208C166.436 4.71339 166.819 4.93269 167.114 5.24937C167.362 5.54855 167.491 5.92929 167.475 6.31794C167.473 6.72395 167.388 7.12524 167.224 7.49651C167.068 7.86418 166.832 8.19192 166.532 8.45508C166.201 8.73835 165.824 8.9617 165.416 9.11508C164.935 9.27292 164.43 9.34733 163.924 9.33508L160.498 9.30365ZM163.028 5.40651L162.745 7.76365H164.081C164.299 7.76919 164.517 7.73731 164.725 7.66937C164.885 7.60008 165.025 7.49208 165.134 7.35508C165.246 7.21717 165.326 7.05621 165.369 6.88366C165.421 6.69945 165.447 6.50918 165.448 6.31794C165.473 6.19347 165.473 6.06527 165.448 5.9408C165.419 5.8271 165.359 5.72368 165.275 5.64223C165.168 5.56906 165.052 5.51089 164.929 5.46937C164.757 5.4423 164.582 5.4423 164.411 5.46937L163.028 5.40651ZM163.201 4.03937H164.175C164.384 4.06502 164.595 4.06502 164.804 4.03937C164.975 3.99289 165.135 3.91276 165.275 3.80365C165.409 3.68361 165.511 3.53253 165.574 3.36365C165.655 3.14245 165.692 2.90764 165.684 2.67223C165.697 2.53937 165.68 2.40524 165.633 2.28C165.587 2.15476 165.513 2.0417 165.416 1.94937C165.169 1.79048 164.876 1.71859 164.584 1.74508H163.484L163.201 4.03937Z" fill="#33aa7e"/>
<path d="M176.149 9.30301H174.578C174.428 9.3122 174.28 9.27368 174.154 9.19301C174.1 9.15559 174.055 9.10653 174.022 9.04942C173.989 8.99231 173.97 8.92861 173.965 8.86301L173.682 7.29158H170.539L169.848 8.86301C169.797 8.99483 169.703 9.10556 169.581 9.17729C169.452 9.26574 169.297 9.30986 169.141 9.30301H167.569L171.922 0.188721H174.012L176.149 9.30301ZM171.152 5.81443H173.446L173.006 3.20586C173.006 2.98586 173.006 2.76586 172.881 2.54586C172.755 2.32586 172.881 2.12158 172.771 1.93301L172.645 2.27872C172.645 2.40443 172.535 2.53015 172.488 2.64015L172.331 2.98586C172.3 3.06702 172.263 3.1458 172.221 3.22158L171.152 5.81443Z" fill="#33aa7e"/>
<path d="M179.136 7.66872H182.279L182.075 9.24015H176.952L178.021 0.188721H180.064L179.136 7.66872Z" fill="#33aa7e"/>
<mask id="mask0" mask-type="alpha" maskUnits="userSpaceOnUse" x="0" y="0" width="43" height="44">
<path fill-rule="evenodd" clip-rule="evenodd" d="M22.3716 0C26.2892 0.000724512 30.1356 1.04683 33.5138 3.03035C36.8921 5.01388 39.6799 7.86296 41.5895 11.2836C43.9145 15.4458 43.3942 16.6002 38.7117 16.6002H31.9155C28.6638 16.6002 28.6638 16.6002 28.3711 13.3484C28.0785 10.0967 26.9566 9.64145 23.9975 11.2185C22.5993 11.9664 20.7458 13.1533 18.437 14.7142C8.14522 21.3152 8.14522 22.5834 18.437 29.1682C20.7945 30.7941 22.5993 31.9322 23.9975 32.6801C26.9566 34.306 28.0134 33.802 28.3711 30.5502C28.7288 27.2985 28.7288 27.2985 31.9155 27.2985H38.7117C43.3942 27.2985 43.9145 28.4528 41.5895 32.6151C39.2148 36.8505 35.5065 40.182 31.0417 42.0909C26.577 43.9998 21.6063 44.3791 16.9037 43.1695C12.201 41.96 8.03018 39.2296 5.04048 35.4034C2.05079 31.5772 0.409995 26.8699 0.373535 22.0144C0.373534 16.1786 2.69067 10.5816 6.81564 6.4536C10.9406 2.32558 16.5359 0.00431001 22.3716 0Z" fill="#4E5B9E"/>
</mask>
<g mask="url(#mask0)">
<path d="M43.9145 0H0.373535V44.0125H43.9145V0Z" fill="#33aa7e"/>
</g>
<path fill-rule="evenodd" clip-rule="evenodd" d="M6.81201 37.574C6.81201 37.574 2.48718 25.4774 14.9089 17.1367C15.9007 16.4376 17.0876 15.6571 18.437 14.7792C20.7946 13.1533 22.5993 12.0314 23.9975 11.2835C26.8428 9.75522 27.9321 10.1129 28.3386 13.0557C26.5502 -0.634131 15.2341 1.18685 15.2341 1.18685C10.8972 2.67959 7.13443 5.48866 4.47049 9.22226C1.80655 12.9558 0.374305 17.4278 0.373535 22.0143C0.376396 24.9088 0.952581 27.7741 2.06882 30.4447C3.18507 33.1153 4.81925 35.5384 6.87704 37.574H6.81201Z" fill="#33aa7e"/>
<path fill-rule="evenodd" clip-rule="evenodd" d="M28.3707 13.4136C28.7284 16.6654 28.7284 16.6654 31.9151 16.6654H38.7113C43.3938 16.6654 43.9141 15.511 41.5891 11.3488C39.0852 6.83308 35.0737 3.3412 30.256 1.48366C25.4383 -0.373881 20.1209 -0.47887 15.2336 1.18705C15.2336 1.18705 26.6148 -0.633935 28.3382 13.0559C28.3309 13.1751 28.3309 13.2945 28.3382 13.4136H28.3707Z" fill="#33aa7e"/>
<path fill-rule="evenodd" clip-rule="evenodd" d="M28.3707 13.4136C28.7284 16.6654 28.7284 16.6654 31.9151 16.6654H38.7113C43.3938 16.6654 43.9141 15.511 41.5891 11.3488C39.0852 6.83308 35.0737 3.3412 30.256 1.48366C25.4383 -0.373881 20.1209 -0.47887 15.2336 1.18705C15.2336 1.18705 26.6148 -0.633935 28.3382 13.0559C28.3309 13.1751 28.3309 13.2945 28.3382 13.4136H28.3707Z" fill="url(#paint0_linear)"/>
<path fill-rule="evenodd" clip-rule="evenodd" d="M23.9976 32.7454C22.5994 31.9975 20.7459 30.7943 18.4371 29.2335C9.51108 23.5104 8.32419 21.8032 14.909 17.137C2.48729 25.4777 6.7796 37.5742 6.7796 37.5742C9.18919 39.977 12.123 41.7885 15.3506 42.8664C18.5783 43.9443 22.0118 44.2593 25.3817 43.7867C28.7516 43.3141 31.966 42.0667 34.7726 40.1424C37.5792 38.2182 39.9015 35.6695 41.5571 32.6966C42.014 31.9221 42.3951 31.1054 42.6952 30.2578C42.6952 30.2578 38.2566 41.0373 24.6805 33.0868L23.9976 32.7454Z" fill="#33aa7e"/>
<path fill-rule="evenodd" clip-rule="evenodd" d="M24.6808 33.0702L23.9816 32.7288C22.5996 31.9809 20.7299 30.794 18.4374 29.2332C10.9746 24.4531 8.99106 22.4695 12.2428 19.2178L11.8201 19.5592C9.37302 21.7817 7.60437 24.6509 6.71829 27.8356C5.83221 31.0203 5.86483 34.3907 6.81238 37.5576C9.22042 39.9636 12.1539 41.7779 15.3821 42.8577C18.6103 43.9376 22.045 44.2535 25.416 43.7807C28.787 43.3079 32.0023 42.0593 34.8088 40.1331C37.6154 38.2068 39.9366 35.6556 41.5899 32.68C42.0468 31.9056 42.4279 31.0889 42.728 30.2412C42.728 30.2412 38.2568 41.037 24.6808 33.0702Z" fill="url(#paint1_linear)"/>
<defs>
<linearGradient id="paint0_linear" x1="45.7188" y1="16.7955" x2="4.81178" y2="-3.57677" gradientUnits="userSpaceOnUse">
<stop stop-color="#B0E8FF"/>
<stop offset="1" stop-color="#7CD8FF" stop-opacity="0"/>
</linearGradient>
<linearGradient id="paint1_linear" x1="46.4113" y1="44.1874" x2="-10.0564" y2="19.1751" gradientUnits="userSpaceOnUse">
<stop stop-color="#A2E3FF"/>
<stop offset="1" stop-color="#B3E8FF" stop-opacity="0"/>
</linearGradient>
</defs>
</svg>
