<svg width="20" height="20" viewBox="0 0 20 20" fill="none" xmlns="http://www.w3.org/2000/svg">
<path fill-rule="evenodd" clip-rule="evenodd" d="M6.78223 0.622341C8.89869 0.125887 11.1013 0.125886 13.2178 0.62234C16.2742 1.33928 18.6607 3.72578 19.3777 6.78223C19.8741 8.89868 19.8741 11.1013 19.3777 13.2178C18.6607 16.2742 16.2742 18.6607 13.2178 19.3777C11.1013 19.8741 8.89869 19.8741 6.78223 19.3777C3.72579 18.6607 1.33929 16.2742 0.622341 13.2178C0.125886 11.1013 0.125886 8.89868 0.622341 6.78222C1.33929 3.72578 3.72578 1.33928 6.78223 0.622341ZM9.99997 7.92585C10.5727 7.92585 11.037 7.46154 11.037 6.88879C11.037 6.31604 10.5727 5.85173 9.99997 5.85173C9.42722 5.85173 8.96291 6.31604 8.96291 6.88879C8.96291 7.46154 9.42722 7.92585 9.99997 7.92585ZM9.99997 8.70365C10.4295 8.70365 10.7778 9.05188 10.7778 9.48144V13.6297C10.7778 14.0592 10.4295 14.4075 9.99997 14.4075C9.57041 14.4075 9.22218 14.0592 9.22218 13.6297V9.48144C9.22218 9.05188 9.57041 8.70365 9.99997 8.70365Z" fill="#1FBF75"/>
</svg>
