<svg width="1140" height="230" viewBox="0 0 1140 230" fill="none" xmlns="http://www.w3.org/2000/svg">
<mask id="mask0" mask-type="alpha" maskUnits="userSpaceOnUse" x="0" y="0" width="1140" height="230">
<rect width="1140" height="230" rx="20" fill="#1FBF75"/>
</mask>
<g mask="url(#mask0)">
<g filter="url(#filter0_f)">
<path d="M402.872 -248.15L727.31 181.361L1121.43 238L1080.31 -422L402.872 -248.15Z" fill="#10FF90"/>
</g>
<g filter="url(#filter1_f)">
<path d="M478.13 -96.1883L807.222 234.405L1207 278L1165.28 -230L478.13 -96.1883Z" fill="#1FBF75"/>
</g>
<g filter="url(#filter2_f)">
<path d="M395.655 -96.1883L724.748 234.405L1124.53 278L1082.81 -230L395.655 -96.1883Z" fill="#1FBF75"/>
</g>
<g filter="url(#filter3_f)">
<path d="M970.916 274C863.8 201.515 425.5 41.8174 416.756 32C115.083 185.938 -185.133 261.565 -408.473 274H970.916Z" fill="white"/>
</g>
<g filter="url(#filter4_f)">
<path d="M970.916 274C863.8 201.515 425.5 41.8174 416.756 32C115.083 185.938 -185.133 261.565 -408.473 274H970.916Z" fill="white"/>
</g>
<g filter="url(#filter5_f)">
<path d="M764.729 184C657.614 111.515 219.313 -48.1826 210.569 -58C-91.1038 95.9375 -391.32 171.565 -614.66 184H764.729Z" fill="white"/>
</g>
<g filter="url(#filter6_f)">
<path d="M970.916 184C863.8 111.515 425.5 -48.1826 416.756 -58C115.083 95.9375 -185.133 171.565 -408.473 184H970.916Z" fill="white"/>
</g>
<g filter="url(#filter7_f)">
<path d="M152.935 301.447C263.17 291.389 586.579 98.7228 494.987 -82C70.9087 73.2645 -372.839 101.866 -626 103.437V301.447C-433.9 305.637 42.7011 311.504 152.935 301.447Z" fill="#2A92ED"/>
</g>
<g filter="url(#filter8_f)">
<path d="M-619.814 -223V163.328C-186.882 223.595 291.85 83.7011 477.099 6.22099V-62.0302L-619.814 -223Z" fill="#0B2155" fill-opacity="0.9"/>
</g>
<g filter="url(#filter9_f)">
<path d="M-619.814 -131V158.986C-186.882 204.224 291.85 99.217 477.099 41.0586V-10.1723L-619.814 -131Z" fill="#101C58" fill-opacity="0.9"/>
</g>
<g filter="url(#filter10_f)">
<path d="M181.003 301.118C557.434 289.681 630.271 98.5677 535.379 -82C96.0203 73.1312 -363.717 101.708 -626 103.278V301.118C-426.979 305.305 66.3525 304.601 181.003 301.118Z" fill="#2A92ED"/>
</g>
</g>
<defs>
<filter id="filter0_f" x="252.872" y="-572" width="1018.56" height="960" filterUnits="userSpaceOnUse" color-interpolation-filters="sRGB">
<feFlood flood-opacity="0" result="BackgroundImageFix"/>
<feBlend mode="normal" in="SourceGraphic" in2="BackgroundImageFix" result="shape"/>
<feGaussianBlur stdDeviation="75" result="effect1_foregroundBlur"/>
</filter>
<filter id="filter1_f" x="328.13" y="-380" width="1028.87" height="808" filterUnits="userSpaceOnUse" color-interpolation-filters="sRGB">
<feFlood flood-opacity="0" result="BackgroundImageFix"/>
<feBlend mode="normal" in="SourceGraphic" in2="BackgroundImageFix" result="shape"/>
<feGaussianBlur stdDeviation="75" result="effect1_foregroundBlur"/>
</filter>
<filter id="filter2_f" x="245.655" y="-380" width="1028.87" height="808" filterUnits="userSpaceOnUse" color-interpolation-filters="sRGB">
<feFlood flood-opacity="0" result="BackgroundImageFix"/>
<feBlend mode="normal" in="SourceGraphic" in2="BackgroundImageFix" result="shape"/>
<feGaussianBlur stdDeviation="75" result="effect1_foregroundBlur"/>
</filter>
<filter id="filter3_f" x="-558.473" y="-118" width="1679.39" height="542" filterUnits="userSpaceOnUse" color-interpolation-filters="sRGB">
<feFlood flood-opacity="0" result="BackgroundImageFix"/>
<feBlend mode="normal" in="SourceGraphic" in2="BackgroundImageFix" result="shape"/>
<feGaussianBlur stdDeviation="75" result="effect1_foregroundBlur"/>
</filter>
<filter id="filter4_f" x="-558.473" y="-118" width="1679.39" height="542" filterUnits="userSpaceOnUse" color-interpolation-filters="sRGB">
<feFlood flood-opacity="0" result="BackgroundImageFix"/>
<feBlend mode="normal" in="SourceGraphic" in2="BackgroundImageFix" result="shape"/>
<feGaussianBlur stdDeviation="75" result="effect1_foregroundBlur"/>
</filter>
<filter id="filter5_f" x="-764.66" y="-208" width="1679.39" height="542" filterUnits="userSpaceOnUse" color-interpolation-filters="sRGB">
<feFlood flood-opacity="0" result="BackgroundImageFix"/>
<feBlend mode="normal" in="SourceGraphic" in2="BackgroundImageFix" result="shape"/>
<feGaussianBlur stdDeviation="75" result="effect1_foregroundBlur"/>
</filter>
<filter id="filter6_f" x="-558.473" y="-208" width="1679.39" height="542" filterUnits="userSpaceOnUse" color-interpolation-filters="sRGB">
<feFlood flood-opacity="0" result="BackgroundImageFix"/>
<feBlend mode="normal" in="SourceGraphic" in2="BackgroundImageFix" result="shape"/>
<feGaussianBlur stdDeviation="75" result="effect1_foregroundBlur"/>
</filter>
<filter id="filter7_f" x="-776" y="-232" width="1437.12" height="689" filterUnits="userSpaceOnUse" color-interpolation-filters="sRGB">
<feFlood flood-opacity="0" result="BackgroundImageFix"/>
<feBlend mode="normal" in="SourceGraphic" in2="BackgroundImageFix" result="shape"/>
<feGaussianBlur stdDeviation="75" result="effect1_foregroundBlur"/>
</filter>
<filter id="filter8_f" x="-819.814" y="-423" width="1496.91" height="801" filterUnits="userSpaceOnUse" color-interpolation-filters="sRGB">
<feFlood flood-opacity="0" result="BackgroundImageFix"/>
<feBlend mode="normal" in="SourceGraphic" in2="BackgroundImageFix" result="shape"/>
<feGaussianBlur stdDeviation="100" result="effect1_foregroundBlur"/>
</filter>
<filter id="filter9_f" x="-769.814" y="-281" width="1396.91" height="601" filterUnits="userSpaceOnUse" color-interpolation-filters="sRGB">
<feFlood flood-opacity="0" result="BackgroundImageFix"/>
<feBlend mode="normal" in="SourceGraphic" in2="BackgroundImageFix" result="shape"/>
<feGaussianBlur stdDeviation="75" result="effect1_foregroundBlur"/>
</filter>
<filter id="filter10_f" x="-776" y="-232" width="1499" height="686" filterUnits="userSpaceOnUse" color-interpolation-filters="sRGB">
<feFlood flood-opacity="0" result="BackgroundImageFix"/>
<feBlend mode="normal" in="SourceGraphic" in2="BackgroundImageFix" result="shape"/>
<feGaussianBlur stdDeviation="75" result="effect1_foregroundBlur"/>
</filter>
</defs>
</svg>
