<svg width="120" height="120" viewBox="0 0 120 120" fill="none" xmlns="http://www.w3.org/2000/svg">
<g clip-path="url(#clip0)">
<mask id="mask0" mask-type="alpha" maskUnits="userSpaceOnUse" x="1" y="-1" width="118" height="121">
<path fill-rule="evenodd" clip-rule="evenodd" d="M61.742 -0.187988C72.4596 -0.186006 82.9826 2.67593 92.2249 8.10246C101.467 13.529 109.094 21.3235 114.318 30.6816C120.679 42.0687 119.256 45.2269 106.445 45.2269H87.8522C78.9561 45.2269 78.9561 45.2269 78.1554 36.3307C77.3548 27.4346 74.2856 26.1891 66.1901 30.5037C62.3647 32.5498 57.2939 35.7969 50.9777 40.0671C22.8214 58.1263 22.8214 61.5958 50.9777 79.6105C57.4274 84.0585 62.3647 87.1722 66.1901 89.2183C74.2856 93.6664 77.1768 92.2875 78.1554 83.3913C79.134 74.4952 79.134 74.4952 87.8522 74.4952H106.445C119.256 74.4952 120.679 77.6533 114.318 89.0404C107.822 100.628 97.6763 109.742 85.4616 114.964C73.2469 120.187 59.6483 121.224 46.7827 117.915C33.9172 114.606 22.5066 107.136 14.3274 96.6688C6.1482 86.2011 1.65932 73.3228 1.55957 60.0389V60.0389C1.55957 44.0735 7.89878 28.7612 19.1839 17.4678C30.469 6.17433 45.7765 -0.176197 61.742 -0.187988V-0.187988Z" fill="#4E5B9E"/>
</mask>
<g mask="url(#mask0)">
<path d="M120.679 -0.187988H1.55957V120.221H120.679V-0.187988Z" fill="#4E5B9E"/>
</g>
<path fill-rule="evenodd" clip-rule="evenodd" d="M78.1548 36.5077C79.1334 45.4039 79.1334 45.4039 87.8516 45.4039H106.445C119.255 45.4039 120.678 42.2457 114.318 30.8587C107.468 18.5047 96.4929 8.95154 83.3126 3.86968C70.1322 -1.21218 55.585 -1.49941 42.2144 3.05821C42.2144 3.05821 73.3509 -1.92364 78.0658 35.5292C78.0459 35.855 78.0459 36.1818 78.0658 36.5077H78.1548Z" fill="#4E5B9E"/>
<path fill-rule="evenodd" clip-rule="evenodd" d="M66.1913 89.3963C62.3659 87.3502 57.2951 84.0586 50.9789 79.7885C26.559 64.1313 23.3119 59.4608 41.3266 46.6948C7.34327 69.5134 19.0862 102.607 19.0862 102.607C25.6783 109.181 33.7047 114.136 42.5348 117.085C51.365 120.034 60.7585 120.896 69.9779 119.603C79.1972 118.31 87.9913 114.898 95.6695 109.633C103.348 104.369 109.701 97.3963 114.23 89.2629C115.48 87.1441 116.523 84.9098 117.344 82.5908C117.344 82.5908 105.201 112.082 68.0595 90.3304L66.1913 89.3963V89.3963Z" fill="#4E5B9E"/>
</g>
<defs>
<clipPath id="clip0">
<rect width="120" height="120" fill="white"/>
</clipPath>
</defs>
</svg>
