<svg width="210" height="41" viewBox="0 0 210 41" fill="none" xmlns="http://www.w3.org/2000/svg">
<path fill-rule="evenodd" clip-rule="evenodd" d="M22.4731 0L34.329 0L30.613 11.1172L22.4731 0ZM18.5209 38.9104L0.176758 13.6021H10.2041L18.5209 38.9104ZM20.7031 40.5452L11.8555 13.6021H29.7277L20.7031 40.5452ZM22.6499 39.5642L41.4658 13.6021L31.3795 13.6021L22.6499 39.5642ZM29.1968 11.9021L20.821 0.523193L12.4453 11.9021H29.1968ZM7.37256 0L19.2284 0L11.0296 11.1826L7.37256 0ZM6.07537 1.04614L0 11.9021H9.6734L6.07537 1.04614ZM35.5682 1.04614L41.7025 11.9021L31.9111 11.9021L35.5682 1.04614Z" fill="white"/>
<path d="M67.2584 30.7665C67.2584 35.4096 71.1513 34.0363 71.1513 35.148V35.4096H56.7002V35.148C56.7002 33.9709 60.5342 35.5404 60.5342 30.3087V8.79359C60.5342 4.67366 56.7002 5.98157 56.7002 4.86985V4.54287L71.2103 4.54287V4.86985C71.2103 5.98157 67.2584 4.73906 67.2584 8.79359V18.4721H68.4381C72.6849 18.4721 74.2185 14.7446 75.8701 9.18596L76.224 8.13963C76.9908 5.85078 78.0525 3.88892 80.7068 3.88892C82.7712 3.88892 84.2458 5.5892 84.2458 7.22409C84.2458 9.05517 82.9482 10.4285 81.1197 10.4285C79.822 10.4285 77.8755 9.64373 77.4626 7.28948C76.165 10.2977 75.1033 16.6411 71.6232 18.4721V18.7337C76.9318 18.7337 79.0552 20.761 80.7658 25.9926C82.7712 32.009 83.715 34.6902 85.6615 34.6902C85.8974 34.6902 86.1923 34.6248 86.5462 34.5594L86.6642 35.3442C85.4845 35.802 83.8329 36.1943 82.1224 36.1943C78.2294 36.1943 76.8138 34.1017 75.6931 31.2243C74.0416 27.1697 73.5697 23.1806 71.8591 20.761C71.2693 19.9108 70.2666 19.4531 68.8509 19.4531H67.3763V30.7665H67.2584Z" fill="white"/>
<path d="M109.137 25.7299H98.8145L97.5169 29.6537C97.3399 30.1114 97.045 31.2231 97.045 31.7463C97.045 35.016 100.997 34.1005 100.997 35.0814V35.343H90.9106V35.0814C90.9106 33.9043 94.6856 35.4738 96.5731 29.8498C98.8145 23.1795 101.115 16.64 103.356 10.0351C103.592 9.31579 103.71 8.72724 103.71 8.20408C103.71 5.06512 99.8173 5.91525 99.8173 4.86893V4.47656L108.783 4.47656L117.749 30.8962C119.223 35.0814 121.641 34.1659 121.641 35.0814V35.343H108.37V35.0814C108.37 34.2313 111.201 34.8199 111.201 32.531C111.201 32.0733 111.024 31.3539 110.611 30.1114L109.137 25.7299ZM103.828 10.4929L99.0505 24.9452H108.901L104.123 10.4929H103.828Z" fill="white"/>
<path d="M129.663 8.92342C129.663 4.54195 125.711 5.98065 125.711 4.80354V4.47656L139.75 4.47656C146.474 4.47656 151.664 7.28855 151.664 13.5665C151.664 20.2368 146.061 23.0488 140.163 23.0488C138.924 23.0488 137.508 22.9834 136.27 22.7218C136.27 25.403 136.329 28.0188 136.329 30.7C136.329 35.343 140.28 33.9697 140.28 35.0814V35.343H125.711V35.0814C125.711 34.0351 129.663 35.2776 129.663 30.6346V8.92342ZM136.329 21.937C136.682 22.0024 137.036 22.0678 137.39 22.0678C141.873 22.0678 144.468 18.7981 144.468 13.6319C144.468 8.33487 141.696 5.32669 138.039 5.32669H136.329V21.937Z" fill="white"/>
<path d="M169.36 25.7299H159.038L157.74 29.6537C157.563 30.1114 157.268 31.2231 157.268 31.7463C157.268 35.016 161.22 34.1005 161.22 35.0814V35.343H151.075V35.0814C151.075 33.9043 154.85 35.4738 156.737 29.8498C158.979 23.1795 161.279 16.64 163.52 10.0351C163.756 9.31579 163.874 8.72724 163.874 8.20408C163.874 5.06512 159.981 5.91525 159.981 4.86893V4.47656L168.947 4.47656L177.913 30.8962C179.387 35.0814 181.806 34.1659 181.806 35.0814V35.343H168.593V35.0814C168.593 34.2313 171.424 34.8199 171.424 32.531C171.424 32.0733 171.247 31.3539 170.834 30.1114L169.36 25.7299ZM164.11 10.4929L159.333 24.9452H169.183L164.405 10.4929H164.11Z" fill="white"/>
<path d="M208.88 3.49658L210.001 14.7445C209.942 14.8098 209.883 14.8098 209.765 14.8098C209.411 14.8098 209.234 14.5483 209.057 13.9597C207.052 7.61644 205.105 5.32763 200.622 5.32763H199.561C199.561 13.8289 199.62 22.1994 199.62 30.7007C199.62 35.3438 203.69 33.9705 203.69 35.0822V35.3438H189.002V35.0822C189.002 33.9705 192.954 35.3438 192.954 30.6353V5.32763H191.893C187.41 5.32763 185.463 7.68184 183.458 13.9597C183.281 14.4829 183.104 14.8098 182.75 14.8098C182.691 14.8098 182.632 14.8098 182.514 14.7445L183.635 3.49658C186.938 4.34671 190.3 4.4775 196.258 4.4775C202.215 4.4775 205.577 4.34671 208.88 3.49658Z" fill="white"/>
</svg>
