<svg width="22" height="16" viewBox="0 0 22 16" fill="none" xmlns="http://www.w3.org/2000/svg">
<g clip-path="url(#clip0)">
<path d="M-5.35376 0.0012207H26.7266V16.0414H-5.35376V0.0012207Z" fill="#012169"/>
<path d="M-5.35376 0.0012207V1.79321L23.1395 16.0414H26.7266V14.2494L-1.76665 0.0012207H-5.35376ZM26.7266 0.0012207V1.79321L-1.76665 16.0414H-5.35376V14.2494L23.1395 0.0012207H26.7266Z" fill="white"/>
<path d="M8.01408 0.0012207V16.0414H13.3587V0.0012207H8.01408ZM-5.35376 5.34898V10.6936H26.7266V5.34898H-5.35376Z" fill="white"/>
<path d="M-5.35376 6.41728V9.62531H26.7266V6.41728H-5.35376ZM9.08238 0.0012207V16.0414H12.2904V0.0012207H9.08238ZM-5.35376 16.0414L5.33863 10.6936H7.73213L-2.9634 16.0414H-5.35376ZM-5.35376 0.0012207L5.33863 5.34898H2.94827L-5.35376 1.19797V0.0012207ZM13.6438 5.34898L24.3362 0.0012207H26.7266L16.0342 5.34898H13.6438ZM26.7266 16.0414L16.0342 10.6936H18.4245L26.7266 14.8446V16.0414Z" fill="#C8102E"/>
</g>
<defs>
<clipPath id="clip0">
<rect width="21.33" height="15.9975" fill="white" transform="translate(0 0.0012207)"/>
</clipPath>
</defs>
</svg>
