<svg width="21" height="21" viewBox="0 0 21 21" fill="none" xmlns="http://www.w3.org/2000/svg">
<path fill-rule="evenodd" clip-rule="evenodd" d="M16.4053 12.8126C16.4053 12.742 16.3681 12.6766 16.3075 12.6406L7.07382 7.15827C7.01313 7.12223 6.97592 7.05688 6.97592 6.98629V2.5385C6.97592 2.38364 6.80749 2.28753 6.67417 2.36632L5.0416 3.33115C4.98071 3.36714 4.94336 3.43261 4.94336 3.50333V8.18717C4.94336 8.25794 4.98076 8.32344 5.04171 8.35941L14.2954 13.8204C14.3563 13.8564 14.3937 13.9219 14.3937 13.9927V18.4415C14.3937 18.5961 14.5616 18.6922 14.6949 18.614L16.3065 17.6688C16.3677 17.6329 16.4053 17.5673 16.4053 17.4963V12.8126Z" fill="white"/>
<path d="M15.0222 3.65579C15.0222 3.50051 15.1914 3.40447 15.3247 3.48407L15.6791 3.69567C15.7395 3.73177 15.7765 3.79699 15.7765 3.86739V6.16861C15.7765 6.32388 15.6073 6.41993 15.474 6.34032L15.1196 6.12872C15.0592 6.09263 15.0222 6.02741 15.0222 5.95701V3.65579ZM14.6961 2.36865C14.5628 2.28904 14.3936 2.38509 14.3936 2.54036V6.32166C14.3936 6.39207 14.4306 6.45728 14.491 6.49338L16.1026 7.45575C16.2359 7.53535 16.4052 7.4393 16.4052 7.28403V3.50273C16.4052 3.43233 16.3681 3.36711 16.3077 3.33102L14.6961 2.36865Z" fill="white"/>
<path d="M5.57199 14.8314C5.57199 14.6762 5.74121 14.5801 5.87453 14.6597L6.22888 14.8713C6.28933 14.9074 6.32634 14.9726 6.32634 15.043V17.3443C6.32634 17.4995 6.15711 17.5956 6.0238 17.516L5.66945 17.3044C5.609 17.2683 5.57199 17.2031 5.57199 17.1327V14.8314ZM5.24454 13.5403C5.11121 13.4621 4.94336 13.5582 4.94336 13.7128V17.4973C4.94336 17.5677 4.98038 17.6329 5.04082 17.669L6.65243 18.6314C6.78574 18.711 6.95497 18.615 6.95497 18.4597V14.658C6.95497 14.587 6.91736 14.5214 6.85615 14.4855L5.24454 13.5403Z" fill="white"/>
<path d="M18.1653 5.52194C18.1653 5.36667 18.3345 5.27062 18.4678 5.35022L18.8221 5.56182C18.8826 5.59792 18.9196 5.66314 18.9196 5.73354V8.03476C18.9196 8.19003 18.7504 8.28608 18.6171 8.20647L18.2627 7.99487C18.2023 7.95878 18.1653 7.89356 18.1653 7.82316V5.52194ZM17.8392 4.2348C17.7058 4.15519 17.5366 4.25124 17.5366 4.40651V8.18782C17.5366 8.25822 17.5736 8.32344 17.6341 8.35953L19.2457 9.3219C19.379 9.4015 19.5482 9.30545 19.5482 9.15018V5.36888C19.5482 5.29848 19.5112 5.23326 19.4508 5.19717L17.8392 4.2348Z" fill="white"/>
<path fill-rule="evenodd" clip-rule="evenodd" d="M11.2506 2.83681C11.2506 2.7669 11.2141 2.70207 11.1543 2.66581L10.7885 2.44393C10.7248 2.40526 10.6448 2.40526 10.5811 2.44393L10.2153 2.66581C10.1555 2.70207 10.119 2.7669 10.119 2.83681V5.14116C10.119 5.21193 10.1564 5.27743 10.2174 5.3134L19.4711 10.7744C19.532 10.8104 19.5694 10.8759 19.5694 10.9467V15.6305C19.5694 15.7012 19.5321 15.7667 19.4712 15.8027L17.8386 16.7675C17.7053 16.8463 17.5368 16.7502 17.5368 16.5953V12.1476C17.5368 12.077 17.4996 12.0116 17.439 11.9756L8.20532 6.49326C8.14463 6.45723 8.10742 6.39187 8.10742 6.32129V1.63711C8.10742 1.56638 8.14478 1.50091 8.20568 1.46492L10.5831 0.0601216C10.6458 0.0230358 10.7238 0.0230359 10.7865 0.0601217L13.1639 1.46492C13.2248 1.50091 13.2622 1.56638 13.2622 1.63711V5.42102C13.2622 5.57559 13.0943 5.67173 12.961 5.59354L11.3494 4.64835C11.2882 4.61245 11.2506 4.5468 11.2506 4.47584V2.83681Z" fill="white"/>
<path fill-rule="evenodd" clip-rule="evenodd" d="M11.2504 18.1595C11.2504 18.2314 11.2118 18.2978 11.1493 18.3333L10.7835 18.5413C10.7222 18.5762 10.6471 18.5762 10.5858 18.5413L10.22 18.3333C10.1575 18.2978 10.1189 18.2314 10.1189 18.1595V16.5242C10.1189 16.4532 10.0813 16.3875 10.0201 16.3516L8.40847 15.4065C8.27514 15.3283 8.10729 15.4244 8.10729 15.579V19.3629C8.10729 19.4336 8.14465 19.4991 8.20554 19.5351L10.5829 20.9399C10.6457 20.977 10.7236 20.977 10.7864 20.9399L13.1638 19.5351C13.2247 19.4991 13.262 19.4336 13.262 19.3629V14.6576C13.262 14.5868 13.2246 14.5213 13.1637 14.4854L3.91001 9.02433C3.84906 8.98837 3.81166 8.92286 3.81166 8.85209V4.40651C3.81166 4.25124 3.64243 4.15519 3.50912 4.2348L1.89751 5.19717C1.83706 5.23326 1.80005 5.29848 1.80005 5.36888V10.0533C1.80005 10.1241 1.83745 10.1896 1.8984 10.2256L11.1521 15.6866C11.213 15.7226 11.2504 15.7881 11.2504 15.8588V18.1595Z" fill="white"/>
<path d="M2.42868 12.9652C2.42868 12.81 2.5979 12.7139 2.73122 12.7935L3.08557 13.0051C3.14602 13.0412 3.18303 13.1064 3.18303 13.1768V15.4781C3.18303 15.6333 3.0138 15.7294 2.88049 15.6498L2.52614 15.4382C2.46569 15.4021 2.42868 15.3369 2.42868 15.2665V12.9652ZM2.10259 11.6781C1.96928 11.5985 1.80005 11.6945 1.80005 11.8498V15.6311C1.80005 15.7015 1.83706 15.7667 1.89751 15.8028L3.50912 16.7652C3.64243 16.8448 3.81166 16.7488 3.81166 16.5935V12.8122C3.81166 12.7418 3.77464 12.6766 3.7142 12.6405L2.10259 11.6781Z" fill="white"/>
</svg>
