<svg width="21" height="21" viewBox="0 0 21 21" fill="none" xmlns="http://www.w3.org/2000/svg">
<path fill-rule="evenodd" clip-rule="evenodd" d="M3.00052 13.7483C2.95792 17.3316 5.53688 20.9146 10.4961 20.9146C15.0868 20.9146 18 17.3316 18 13.7483C18 11.1617 16.5534 9.35584 14.8825 7.27008C13.3733 5.38609 11.6812 3.27376 10.7071 0.15148C10.6457 -0.04508 10.3466 -0.0449695 10.2854 0.151628C9.31603 3.26525 7.64318 5.35104 6.14477 7.21933C4.48082 9.29401 3.032 11.1005 3.00052 13.7483ZM7.45752 14.7921V12.7042H9.46083V10.701H11.5486V12.7042H13.5516V14.7921H11.5486V16.7953H9.46083V14.7921H7.45752Z" fill="white"/>
</svg>
