<svg width="21" height="21" viewBox="0 0 21 21" fill="none" xmlns="http://www.w3.org/2000/svg">
<path d="M3.05322 9.40491C1.1368 9.40491 -0.217125 10.2314 0.0288957 11.2525L1.14581 15.8731C1.39137 16.8925 2.43667 17.7202 3.47943 17.7202H4.42262C4.64162 17.7202 4.85969 17.6821 5.07129 17.6137L3.54111 11.2816C3.39026 10.6623 3.53094 10.0533 3.94768 9.52619C3.98048 9.48622 4.01652 9.44556 4.05325 9.40491H3.05322V9.40491Z" fill="white"/>
<path d="M3.92721 3.86215C2.65044 3.86215 1.61553 4.89613 1.61553 6.17082C1.61553 7.44644 2.65021 8.48157 3.92721 8.48157C5.20282 8.48157 6.23657 7.44667 6.23657 6.17082C6.2368 4.8959 5.20305 3.86215 3.92721 3.86215Z" fill="white"/>
<path d="M9.30267 8.59985C6.67405 8.59985 4.81861 9.73409 5.15704 11.1338L6.68676 17.4668C7.02518 18.8655 8.45765 20.0002 9.88642 20.0002H11.181C12.6097 20.0002 14.0334 18.8655 14.3612 17.4668L15.8461 11.1338C16.1742 9.73409 14.3086 8.59985 11.6816 8.59985H9.30267Z" fill="white"/>
<path d="M10.5004 7.33325C8.75149 7.33325 7.33374 5.91551 7.33374 4.16663C7.33374 2.41775 8.75149 1 10.5004 1C12.2492 1 13.667 2.41775 13.667 4.16663C13.667 5.91551 12.2492 7.33325 10.5004 7.33325Z" fill="white"/>
<path d="M17.0725 3.86215C15.7969 3.86215 14.7634 4.89613 14.7634 6.17082C14.7634 7.44644 15.7969 8.48157 17.0725 8.48157C18.3497 8.48157 19.3826 7.44667 19.3826 6.17082C19.3826 4.8959 18.3497 3.86215 17.0725 3.86215Z" fill="white"/>
<path d="M15.9781 17.6109C15.9781 17.6118 15.9781 17.6137 15.9781 17.6137C16.1897 17.6821 16.4064 17.7202 16.6254 17.7202H17.5691C18.6104 17.7202 19.6518 16.8925 19.8897 15.8731L20.9727 11.2525C21.212 10.2314 19.8514 9.40491 17.9352 9.40491H16.9412C16.9763 9.4458 17.0128 9.48276 17.0458 9.52619C17.4642 10.0531 17.6069 10.6581 17.4623 11.2784L15.9781 17.6109Z" fill="white"/>
</svg>
