<svg width="226" height="101" viewBox="0 0 226 101" fill="none" xmlns="http://www.w3.org/2000/svg">
<path d="M1 91.6451C1.81692 92.0571 4.03895 93.0224 6.39168 93.5874C8.74442 94.1525 10.9664 94.7646 11.7834 95H14.7243C14.8877 94.1171 15.7046 92.3514 17.6652 92.3514C19.6258 92.3514 20.4427 93.1754 20.6061 93.5874C20.9329 93.1754 22.2726 92.3514 25.0175 92.3514C28.4486 92.3514 27.4683 91.6451 32.86 90.4091C38.2516 89.1731 38.2516 89.3497 41.6827 87.7606C50.5055 86.1714 48.5449 86.348 51.9759 87.0543C62.1711 87.6193 65.3734 86.5834 65.7002 85.9948V84.4057C65.7002 84.1703 65.9943 83.77 67.1707 84.0525C71.0919 85.6064 73.0525 84.7 73.5427 84.0525C74.8497 83.6405 77.66 83.1344 78.4442 84.4057C84.7182 86.5246 87.5937 85.2885 88.2473 84.4057L92.6586 84.0525C93.4756 84.4645 95.6976 84.5823 98.0503 81.7571C101.972 77.696 105.403 76.6365 107.853 77.5194C110.304 78.4022 110.304 75.7537 114.716 77.5194C119.127 79.2851 114.716 80.5211 122.068 80.6977C129.42 80.8743 130.891 78.5788 134.322 79.6383C137.753 80.6977 138.243 79.4617 144.125 77.5194C148.83 75.9656 154.255 73.9291 156.379 73.1051C157.686 69.8091 161.084 63.3583 164.221 63.9234C168.142 64.6296 167.162 66.0422 169.613 63.9234C172.063 61.8045 175.495 59.6856 177.455 60.0388C179.416 60.3919 177.945 61.0982 181.376 61.9811C184.121 62.6874 188.729 64.1588 190.689 64.8062C191.67 64.5119 193.728 63.9234 194.12 63.9234C194.61 63.9234 196.081 68.5142 197.551 68.6908C199.022 68.8674 201.963 68.6908 203.433 68.6908C204.61 68.6908 208.171 68.6908 209.805 68.6908C210.295 68.1022 211.864 67.1017 214.217 67.808C216.569 68.5142 222.386 66.6897 225 65.6891" stroke="url(#paint0_linear)"/>
<path d="M1 88.8654C1.81692 89.6188 4.03895 91.3838 6.39168 92.417C8.74442 93.4502 10.9664 94.5695 11.7834 95H14.7243C14.8877 93.3856 15.7046 90.1569 17.6652 90.1569C19.6258 90.1569 20.4427 91.6636 20.6061 92.417C20.9329 91.6636 22.2726 90.1569 25.0175 90.1569C28.4486 90.1569 27.4683 88.8654 32.86 86.6053C38.2516 84.3452 38.2516 84.668 41.6827 81.7622C50.5055 78.8563 48.5449 79.1792 51.9759 80.4707C62.1711 81.5039 65.3734 79.6097 65.7002 78.5334V75.6275C65.7002 75.197 65.9943 74.4652 67.1707 74.9818C71.0919 77.8231 73.0525 76.1657 73.5427 74.9818C74.8497 74.2284 77.66 73.3029 78.4442 75.6275C84.7182 79.502 87.5937 77.2419 88.2473 75.6275L92.6586 74.9818C93.4756 75.7352 95.6976 75.9504 98.0503 70.7844C101.972 63.3583 105.403 61.4211 107.853 63.0355C110.304 64.6498 110.304 59.8067 114.716 63.0355C119.127 66.2642 114.716 68.5243 122.068 68.8472C129.42 69.1701 130.891 64.9727 134.322 66.9099C137.753 68.8472 138.243 66.5871 144.125 63.0355C148.83 60.1942 154.255 56.4703 156.379 54.9636C157.686 48.9366 161.084 37.1409 164.221 38.1741C168.142 39.4656 167.162 42.0486 169.613 38.1741C172.063 34.2997 175.495 30.4252 177.455 31.0709C179.416 31.7167 177.945 33.0082 181.376 34.6226C184.121 35.9141 188.729 38.6047 190.689 39.7885C191.67 39.2504 193.728 38.1741 194.12 38.1741C194.61 38.1741 196.081 46.5689 197.551 46.8918C199.022 47.2147 201.963 46.8918 203.433 46.8918C204.61 46.8918 208.171 46.8918 209.805 46.8918C210.295 45.8155 211.864 43.9859 214.217 45.2774C216.569 46.5689 222.386 43.2325 225 41.4029" stroke="url(#paint1_linear)"/>
<path d="M1 90.5105C1.81692 91.6759 4.03895 94.4062 6.39168 96.0044C8.74442 97.6027 10.9664 99.3341 11.7834 100H14.7243C14.8877 97.5028 15.7046 92.5083 17.6652 92.5083C19.6258 92.5083 20.4427 94.8391 20.6061 96.0044C20.9329 94.8391 22.2726 92.5083 25.0175 92.5083C28.4486 92.5083 27.4683 90.5105 32.86 87.0144C38.2516 83.5183 38.2516 84.0177 41.6827 79.5227C50.5055 75.0277 48.5449 75.5272 51.9759 77.5249C62.1711 79.1232 65.3734 76.1931 65.7002 74.5282V70.0332C65.7002 69.3673 65.9943 68.2352 67.1707 69.0343C71.0919 73.4295 73.0525 70.8656 73.5427 69.0343C74.8497 67.869 77.66 66.4372 78.4442 70.0332C84.7182 76.0266 87.5937 72.5305 88.2473 70.0332L92.6586 69.0343C93.4756 70.1997 95.6976 70.5327 98.0503 62.5415C101.972 51.0543 105.403 48.0576 107.853 50.5548C110.304 53.0521 110.304 45.5604 114.716 50.5548C119.127 55.5493 114.716 59.0454 122.068 59.5449C129.42 60.0443 130.891 53.5515 134.322 56.5482C137.753 59.5449 138.243 56.0488 144.125 50.5548C148.83 46.1597 154.255 40.3994 156.379 38.0687C157.686 28.7457 161.084 10.4993 164.221 12.0975C168.142 14.0953 167.162 18.0908 169.613 12.0975C172.063 6.10418 175.495 0.110828 177.455 1.10972C179.416 2.10861 177.945 4.10642 181.376 6.60365C184.121 8.60143 188.729 12.7635 190.689 14.5948C191.67 13.7624 193.728 12.0975 194.12 12.0975C194.61 12.0975 196.081 25.0831 197.551 25.5826C199.022 26.082 201.963 25.5826 203.433 25.5826C204.61 25.5826 208.171 25.5826 209.805 25.5826C210.295 23.9178 211.864 21.0876 214.217 23.0854C216.569 25.0831 222.386 19.9222 225 17.092" stroke="url(#paint2_linear)"/>
<defs>
<linearGradient id="paint0_linear" x1="113" y1="60" x2="113.063" y2="97.829" gradientUnits="userSpaceOnUse">
<stop stop-color="white"/>
<stop offset="1" stop-color="white" stop-opacity="0"/>
</linearGradient>
<linearGradient id="paint1_linear" x1="113" y1="31" x2="113.21" y2="100.173" gradientUnits="userSpaceOnUse">
<stop stop-color="#2A92ED"/>
<stop offset="1" stop-color="#2A92ED" stop-opacity="0.2"/>
</linearGradient>
<linearGradient id="paint2_linear" x1="113" y1="1" x2="113.502" y2="108" gradientUnits="userSpaceOnUse">
<stop stop-color="#1FBF75"/>
<stop offset="1" stop-color="#1FBF75" stop-opacity="0.2"/>
</linearGradient>
</defs>
</svg>
